<svg width="18" height="19" viewBox="0 0 18 19" fill="none" xmlns="http://www.w3.org/2000/svg">
<path d="M10.2198 12.6644L7.41856 17.5158C7.27647 17.7594 6.95168 17.8812 6.7487 17.6985C6.52541 17.5158 6.26152 17.1505 5.97734 16.8257C5.75405 16.5618 5.51046 16.2979 5.30748 16.1761C5.10449 16.0543 4.75941 15.9731 4.41432 15.9122C3.98805 15.831 3.54147 15.7701 3.25729 15.6889C2.9934 15.6077 2.93251 15.2424 3.0746 15.0191L5.87584 10.1676C6.01794 9.92406 6.32242 9.84287 6.54571 9.98496L10.0371 11.9945C10.2604 12.1366 10.3416 12.4411 10.2198 12.6644Z" fill="#EA4411"/>
<path d="M9.06327 11.4467L5.95755 16.8259C5.73426 16.562 5.49067 16.2981 5.28768 16.1763C5.08469 16.0545 4.73961 15.9733 4.39453 15.9124L7.50026 10.5332L9.06327 11.4467Z" fill="#CC3411"/>
<path d="M7.68222 12.6644L10.4835 17.5158C10.6256 17.7594 10.9503 17.8812 11.1533 17.6985C11.3766 17.5158 11.6405 17.1505 11.9247 16.8257C12.148 16.5618 12.3916 16.2979 12.5946 16.1761C12.7975 16.0543 13.1426 15.9731 13.4877 15.9122C13.914 15.831 14.3606 15.7701 14.6447 15.6889C14.9086 15.6077 14.9695 15.2424 14.8274 15.0191L12.0262 10.1676C11.8841 9.92406 11.5796 9.84287 11.3563 9.98496L7.86491 11.9945C7.62133 12.1366 7.54013 12.4411 7.68222 12.6644Z" fill="#FF5629"/>
<path d="M8.81836 11.4467L11.9241 16.8259C12.1474 16.562 12.391 16.2981 12.594 16.1763C12.7969 16.0545 13.142 15.9733 13.4871 15.9124L10.4017 10.5332L8.81836 11.4467Z" fill="#DD3E0E"/>
<path d="M9.95661 2.21065C10.1596 2.88052 10.9513 3.1241 11.4993 2.71812C12.2707 2.12946 13.3465 2.90081 13.0217 3.81426C12.7985 4.46383 13.2856 5.13369 13.9758 5.11339C14.9501 5.09309 15.3561 6.35162 14.5645 6.89969C13.9961 7.28537 13.9961 8.11763 14.5645 8.52361C15.3764 9.07167 14.9501 10.3302 13.9758 10.3099C13.2856 10.2896 12.7985 10.9595 13.0217 11.609C13.3465 12.5225 12.2707 13.3141 11.4993 12.7052C10.9513 12.2789 10.1596 12.5428 9.95661 13.2126C9.67242 14.1464 8.35299 14.1464 8.06881 13.2126C7.86582 12.5428 7.07417 12.2992 6.5261 12.7052C5.75474 13.2938 4.6789 12.5225 5.00368 11.609C5.22697 10.9595 4.73979 10.2896 4.04963 10.3099C3.07529 10.3302 2.66931 9.07167 3.46096 8.52361C4.02933 8.13793 4.02933 7.30567 3.46096 6.89969C2.64901 6.35162 3.07529 5.09309 4.04963 5.11339C4.73979 5.13369 5.22697 4.46383 5.00368 3.81426C4.6789 2.88052 5.75474 2.10916 6.5261 2.69783C7.07417 3.1241 7.86582 2.86022 8.06881 2.21065C8.35299 1.25661 9.67242 1.25661 9.95661 2.21065Z" fill="#FBAE24"/>
<path d="M13.4167 8.74428C13.9857 6.30978 12.4734 3.87496 10.0389 3.30596C7.6044 2.73696 5.16958 4.24924 4.60058 6.68374C4.03158 9.11824 5.54386 11.5531 7.97836 12.1221C10.4129 12.6911 12.8477 11.1788 13.4167 8.74428Z" fill="#FFCE40"/>
<g opacity="0.47">
<path opacity="0.47" d="M12.4725 7.73185C12.4725 9.63995 10.9298 11.203 9.00138 11.203C7.58046 11.203 6.36253 10.3504 5.83476 9.13247C5.65207 8.7062 5.53027 8.21902 5.53027 7.73185C5.53027 5.82376 7.07299 4.26074 9.00138 4.26074C9.91483 4.26074 10.7674 4.62612 11.3764 5.21479C12.0665 5.84405 12.4725 6.73721 12.4725 7.73185Z" fill="#F4990E"/>
</g>
<path d="M12.2495 7.71169C12.2495 9.49799 10.788 10.9595 9.00173 10.9595C7.6823 10.9595 6.52526 10.1679 6.03809 9.03112C5.8554 8.62514 5.75391 8.17856 5.75391 7.71169C5.75391 5.92539 7.21543 4.46387 9.00173 4.46387C9.87458 4.46387 10.6459 4.80895 11.2346 5.35702C11.8639 5.94569 12.2495 6.77794 12.2495 7.71169Z" fill="#FFD833"/>
<path d="M11.5188 6.65594C11.5188 8.44224 10.0573 9.90376 8.27097 9.90376C7.39812 9.90376 6.62676 9.55868 6.03809 9.01061C5.8554 8.60463 5.75391 8.15805 5.75391 7.69118C5.75391 5.90488 7.21543 4.44336 9.00173 4.44336C9.87458 4.44336 10.6459 4.78844 11.2346 5.33651C11.4173 5.74249 11.5188 6.18906 11.5188 6.65594Z" fill="#FFE266"/>
<path d="M8.18943 5.49905C8.10824 5.49905 8.00674 5.45845 7.94584 5.37726C7.84435 5.23516 7.86465 5.05247 7.98644 4.95098C8.31122 4.68709 8.7578 4.72769 8.7984 4.74799C8.96079 4.76829 9.08258 4.91038 9.06228 5.07277C9.04198 5.23516 8.89989 5.35696 8.7375 5.33666C8.6766 5.33666 8.47361 5.33666 8.35182 5.41785C8.33152 5.47875 8.27063 5.49905 8.18943 5.49905Z" fill="white"/>
<path d="M6.38287 7.42752C6.36257 7.42752 6.34227 7.42752 6.34227 7.42752C6.17988 7.40722 6.05809 7.24483 6.07839 7.08243C6.07839 7.06214 6.15958 6.55466 6.60616 6.00659C7.03243 5.49912 7.37751 5.31643 7.41811 5.29613C7.5602 5.21494 7.74289 5.27583 7.82409 5.41793C7.90528 5.56002 7.84439 5.74271 7.7023 5.8239C7.7023 5.8239 7.41811 5.9863 7.07303 6.39227C6.74825 6.79825 6.68735 7.16363 6.68735 7.16363C6.66705 7.32602 6.54526 7.42752 6.38287 7.42752Z" fill="white"/>
</svg>
