<svg width="24" height="24" viewBox="0 0 24 24" fill="none" xmlns="http://www.w3.org/2000/svg">
<path fill-rule="evenodd" clip-rule="evenodd" d="M7.00011 6.99989C7.55241 6.44759 8.44786 6.44759 9.00016 6.99989L12.0002 9.99996L15.0003 6.99989C15.5526 6.44759 16.448 6.44759 17.0003 6.99989C17.5526 7.55219 17.5526 8.44764 17.0003 8.99993L14.0003 12L17.0003 15.0001C17.5526 15.5524 17.5526 16.4478 17.0003 17.0001C16.448 17.5524 15.5526 17.5524 15.0003 17.0001L12.0002 14L9.00016 17.0001C8.44786 17.5524 7.55241 17.5524 7.00011 17.0001C6.44781 16.4478 6.44781 15.5524 7.00011 15.0001L10.0002 12L7.00011 8.99993C6.44781 8.44764 6.44781 7.55219 7.00011 6.99989Z" fill="#3D475F"/>
</svg>
