<svg width="32" height="32" viewBox="0 0 32 32" fill="none" xmlns="http://www.w3.org/2000/svg">
<circle cx="16" cy="16" r="16" fill="#FE6A01"/>
<path d="M16.2266 23.2576C16.2266 23.2148 16.2266 23.1781 16.2266 23.1415C16.2266 18.4313 16.2266 13.7212 16.2246 9.01102C16.2246 8.91735 16.2409 8.88477 16.3448 8.88477C17.1736 8.88884 18.0003 8.88884 18.8291 8.8868C18.9045 8.8868 18.931 8.90106 18.931 8.98455C18.9289 13.3078 18.9289 17.631 18.9289 21.9543C18.9289 22.0011 18.933 22.0418 18.8739 22.0683C18.0024 22.4613 17.1328 22.8564 16.2633 23.2515C16.2572 23.2535 16.249 23.2535 16.2266 23.2576Z" fill="white"/>
<path d="M15.7731 23.2657C15.5837 23.1802 15.4065 23.1008 15.2273 23.0193C14.5329 22.7037 13.8405 22.386 13.1461 22.0744C13.0891 22.05 13.0647 22.0194 13.0728 21.9604C13.0749 21.9441 13.0728 21.9258 13.0728 21.9095C13.0728 17.6147 13.0728 13.318 13.0728 9.02324C13.0728 8.86644 13.0545 8.8868 13.2072 8.8868C14.0279 8.8868 14.8485 8.88884 15.6712 8.88477C15.7568 8.88477 15.7751 8.9092 15.7751 8.99269C15.7731 13.7151 15.7731 18.4395 15.7731 23.1619C15.7731 23.1924 15.7731 23.2209 15.7731 23.2657Z" fill="white"/>
<path d="M12.6102 21.8035C12.3292 21.6793 12.0665 21.5632 11.8038 21.4451C11.0585 21.1132 10.3131 20.7792 9.56579 20.4513C9.47619 20.4106 9.4375 20.3679 9.4375 20.2599C9.44361 19.2417 9.44157 18.2235 9.43954 17.2053C9.43954 17.1463 9.44972 17.0933 9.47415 17.0384C9.60856 16.7248 9.74092 16.4071 9.87532 16.0935C9.89772 16.0426 9.9079 15.9917 9.9079 15.9367C9.9079 14.7148 9.9079 13.493 9.9079 12.2712C9.9079 12.2162 9.89569 12.1653 9.87329 12.1144C9.73888 11.7967 9.60448 11.479 9.47008 11.1614C9.44972 11.1145 9.44157 11.0656 9.44157 11.0147C9.44157 10.3387 9.44361 9.66462 9.43954 8.98854C9.43954 8.91116 9.45786 8.88672 9.53932 8.88672C10.531 8.88876 11.5207 8.88876 12.5124 8.88672C12.5939 8.88672 12.6122 8.91116 12.6122 8.98854C12.6102 13.2303 12.6102 17.4721 12.6102 21.7159C12.6102 21.7383 12.6102 21.7628 12.6102 21.8035Z" fill="white"/>
<path d="M19.3956 21.826C19.3956 21.7771 19.3956 21.7384 19.3956 21.7018C19.3956 17.4702 19.3956 13.2406 19.3936 9.00899C19.3936 8.91328 19.4119 8.88477 19.5137 8.88477C20.4952 8.88884 21.4747 8.88884 22.4563 8.88477C22.5398 8.88477 22.5642 8.90513 22.5622 8.99066C22.5581 9.66674 22.5601 10.3408 22.5601 11.0169C22.5601 11.0718 22.5499 11.1228 22.5275 11.1737C22.3952 11.4812 22.2649 11.7907 22.1345 12.1002C22.1081 12.1613 22.0958 12.2204 22.0979 12.2876C22.0999 13.4992 22.0999 14.7109 22.0979 15.9205C22.0979 15.9856 22.1081 16.0467 22.1345 16.1078C22.2669 16.4153 22.3972 16.7248 22.5275 17.0323C22.5499 17.0832 22.5601 17.1342 22.5601 17.1891C22.5601 18.2277 22.5601 19.2663 22.5601 20.3048C22.5601 20.3578 22.5561 20.3964 22.495 20.4229C21.4788 20.8811 20.4647 21.3434 19.4506 21.8036C19.4384 21.8117 19.4241 21.8138 19.3956 21.826Z" fill="white"/>
</svg>
