<svg width="24" height="24" viewBox="0 0 24 24" fill="none" xmlns="http://www.w3.org/2000/svg">
<path d="M19.1846 10.7549C19.1846 10.7549 20.9131 10.8428 20.9131 9.82617C20.9131 8.49902 18.6103 7.30371 18.6103 7.30371C18.6103 7.30371 18.9707 6.53906 19.1963 6.11133C19.4219 5.68359 20.0547 4.01953 20.1104 3.63867C20.1807 3.1582 20.0723 3.00879 20.0723 3.00879C19.917 4.03418 18.2471 6.9873 18.1123 7.08691C16.4834 6.3252 14.2451 6.11133 14.2451 6.11133C14.2451 6.11133 12.0537 1.5 9.99121 1.5C7.94629 1.5 7.95801 5.44922 7.95801 5.44922C7.95801 5.44922 7.38086 4.33008 6.65429 4.33008C5.59375 4.33008 5.24512 5.92969 5.24512 7.66699C3.15332 7.66699 1.39258 8.13574 1.23437 8.17969C1.0791 8.22363 0.583982 8.58398 0.806638 8.54004C1.2666 8.39355 3.41699 8.05957 5.29785 8.22363C5.40332 9.87305 6.36719 12.0234 6.36719 12.0234C6.36719 12.0234 4.29883 15.0176 4.29883 17.1533C4.29883 17.7158 4.54492 18.7441 6.02734 18.7441C7.27246 18.7441 8.66992 17.9971 8.93066 17.8477C8.70215 18.1729 8.53222 18.7969 8.53222 19.084C8.53222 19.3184 8.67285 19.9834 9.63086 19.9834C10.8613 19.9834 12.2383 19.04 12.2383 19.04C12.2383 19.04 13.5391 21.1963 14.6494 22.1836C14.9482 22.4502 15.2354 22.5 15.2354 22.5C15.2354 22.5 14.1309 21.4395 12.6777 18.7031C14.0283 17.8711 15.4346 15.9023 15.4346 15.9023C15.4346 15.9023 15.6016 15.9082 16.8848 15.9082C18.8945 15.9082 21.748 15.4863 21.748 13.8896C21.751 12.2432 19.1846 10.7549 19.1846 10.7549ZM19.4072 9.76172C19.4072 10.3447 18.8535 10.3389 18.8535 10.3389L18.4316 10.3652C18.4316 10.3652 17.6318 9.94629 17.1455 9.74707C17.1455 9.74707 17.8984 8.58984 18.0742 8.26758C18.2061 8.34668 19.4072 9.09668 19.4072 9.76172ZM10.9961 3.82324C11.9424 3.82324 13.29 6.0498 13.29 6.0498C13.29 6.0498 11.1865 5.8623 9.45508 6.87891C9.50195 5.27637 10.041 3.82324 10.9961 3.82324ZM7.25488 5.62793C7.55371 5.62793 7.84668 5.99414 7.96972 6.30176C7.96972 6.50684 8.07519 7.70215 8.07519 7.70215L6.34082 7.63477C6.34082 6.07324 6.95312 5.62793 7.25488 5.62793ZM7.07324 16.4824C6.12402 16.4824 5.93066 15.9551 5.93066 15.4805C5.93066 14.4053 6.78906 12.8994 6.78906 12.8994C6.78906 12.8994 7.75293 14.9238 9.43164 15.7764C8.59961 16.2656 7.91113 16.4824 7.07324 16.4824ZM10.1523 18.6006C9.4873 18.6006 9.40527 18.1699 9.40527 18.0703C9.40527 17.7627 9.64843 17.3965 9.64843 17.3965C9.64843 17.3965 10.7646 16.6436 10.835 16.5615L11.6611 18.1025C11.6611 18.1025 10.8174 18.6006 10.1523 18.6006ZM12.2266 17.7627C11.8223 17.0566 11.5234 16.3184 11.5234 16.3184C11.5234 16.3184 13.1846 16.4238 14.0781 15.5039C13.5215 15.7529 12.6338 16.0693 11.6025 15.9727C13.7588 14.0742 15.0186 12.6973 16.082 11.2764C15.9912 11.165 15.5049 10.8252 15.3848 10.7695C14.7432 11.543 12.2441 14.2119 9.92969 15.5332C7 13.9365 6.38476 9.24023 6.32324 8.26465L7.92285 8.41699C7.92285 8.41699 7.32226 9.4834 7.32226 10.2686C7.32226 11.0508 7.41601 11.0918 7.41601 11.0918C7.41601 11.0918 7.39551 9.72656 8.23926 8.67188C8.88379 12.0938 9.55468 13.8457 10.0762 14.8916C10.3428 14.7803 10.8379 14.5605 10.8379 14.5605C10.8379 14.5605 9.36133 10.3037 9.44336 7.42383C10.1143 7.06641 11.1074 6.69727 12.2266 6.69727C15.1738 6.69727 17.5439 7.96289 17.5439 7.96289L16.6182 9.25781C16.6182 9.25781 15.792 7.76367 14.623 7.49707C15.2383 7.9541 15.9297 8.56055 16.2871 9.43066C13.8437 8.47852 10.8965 7.97461 9.95019 7.86328C9.86816 8.21191 9.87988 8.70996 9.87988 8.70996C9.87988 8.70996 13.832 9.43945 16.709 11.083C16.6885 14.6807 12.7686 17.4434 12.2266 17.7627ZM15.9707 15.0732C15.9707 15.0732 17.1982 13.4648 17.1777 11.332C17.1777 11.332 19.1611 12.5596 19.1611 13.7578C19.1611 15.0938 15.9707 15.0732 15.9707 15.0732Z" fill="white"/>
</svg>
