<svg width="24" height="24" viewBox="0 0 24 24" fill="none" xmlns="http://www.w3.org/2000/svg">
<path d="M18.8571 3H5.14264C3.96105 3 2.99976 3.9613 2.99976 5.14288V18.8573C2.99976 20.0389 3.96105 21.0002 5.14264 21.0002H18.8571C20.0387 21.0002 21 20.0389 21 18.8573V5.14288C21 3.9613 20.0387 3 18.8571 3ZM18.4285 16.7144L12.4284 16.2859V18.4287L8.14267 19.2859V16.837L5.57121 17.5716L5.99979 9.85722L5.57121 6.42861H8.14267V5.14288H15.4285L15.1426 6.42861H18.4285L17.9999 9.42864L18.4285 16.7144Z" fill="#771E9D"/>
<path d="M11.5715 10.7143V8.57146H13.7885L14.3602 6H9V18.2174L11.5715 17.7413V13.2858H13.7143V10.7143H11.5715Z" fill="#771E9D"/>
</svg>
