<svg width="24" height="24" viewBox="0 0 24 24" fill="none" xmlns="http://www.w3.org/2000/svg">
<path d="M11.9845 3C7.24828 3 3.36844 6.64554 3 11.2781L7.83216 13.2725C8.2541 12.9836 8.7552 12.8291 9.26836 12.8297C9.31631 12.8297 9.3637 12.831 9.41039 12.8336L11.5596 9.72379V9.68025C11.5596 7.809 13.0846 6.28622 14.9594 6.28622C16.8341 6.28622 18.3591 7.809 18.3591 9.68025C18.3591 11.5514 16.8341 13.0748 14.9594 13.0748C14.9334 13.0748 14.9081 13.0742 14.8822 13.0736L11.817 15.256C11.819 15.2965 11.8203 15.3369 11.8203 15.3767C11.8203 16.782 10.6754 17.9249 9.26836 17.9249C8.03325 17.9249 6.99987 17.0445 6.76636 15.8792L3.31008 14.4526C4.38045 18.2304 7.8574 21 11.9845 21C16.9638 21 21 16.9701 21 12C21 7.02935 16.9638 3 11.9845 3ZM8.64975 16.656L7.5424 16.1991C7.73836 16.6072 8.07825 16.9486 8.52909 17.136C9.50341 17.5416 10.6269 17.0802 11.0331 16.1067C11.2297 15.6386 11.2308 15.1125 11.0363 14.6436C10.8417 14.1713 10.4739 13.8029 10.0023 13.6066C9.5333 13.4122 9.03119 13.4192 8.59005 13.5854L9.73439 14.0577C10.4531 14.3568 10.793 15.1807 10.4933 15.8982C10.1943 16.6156 9.36848 16.9551 8.64975 16.656ZM17.2248 9.68025C17.2248 8.43347 16.2083 7.41831 14.9596 7.41831C13.7102 7.41831 12.6937 8.43347 12.6937 9.68025C12.6937 10.9271 13.7102 11.9416 14.9596 11.9416C16.2083 11.9416 17.2248 10.9271 17.2248 9.68025ZM13.2613 9.67643C13.2613 8.73826 14.0235 7.97788 14.9629 7.97788C15.9028 7.97788 16.665 8.73826 16.665 9.67643C16.665 10.6146 15.9028 11.375 14.9628 11.375C14.0235 11.375 13.2613 10.6146 13.2613 9.6765L13.2613 9.67643Z" fill="white"/>
</svg>
