<svg width="24" height="24" viewBox="0 0 24 24" fill="none" xmlns="http://www.w3.org/2000/svg">
<path fill-rule="evenodd" clip-rule="evenodd" d="M20.841 6.01175C21.134 6.30477 21.3451 6.66943 21.4534 7.06943C22.0766 9.57815 21.9326 13.5403 21.4655 16.1459C21.3573 16.5459 21.1461 16.9105 20.8531 17.2035C20.5601 17.4965 20.1954 17.7077 19.7954 17.8159C18.3311 18.2153 12.4375 18.2153 12.4375 18.2153C12.4375 18.2153 6.54383 18.2153 5.0795 17.8159C4.6795 17.7077 4.31484 17.4965 4.02183 17.2035C3.72882 16.9105 3.51768 16.5459 3.40944 16.1459C2.78256 13.648 2.95441 9.68344 3.39734 7.08153C3.50557 6.68153 3.71671 6.31687 4.00973 6.02385C4.30274 5.73084 4.6674 5.5197 5.0674 5.41146C6.53173 5.0121 12.4254 5 12.4254 5C12.4254 5 18.319 5 19.7833 5.39936C20.1833 5.5076 20.548 5.71874 20.841 6.01175ZM15.439 11.6077L10.5498 14.4395V8.77583L15.439 11.6077Z" fill="white"/>
</svg>
