<svg width="32" height="32" viewBox="0 0 32 32" fill="none" xmlns="http://www.w3.org/2000/svg">
<circle cx="16" cy="16" r="16" fill="#771E9D"/>
<path d="M21.143 9.25H10.8572C9.97097 9.25 9.25 9.97097 9.25 10.8572V21.143C9.25 22.0292 9.97097 22.7502 10.8572 22.7502H21.143C22.0292 22.7502 22.7502 22.0292 22.7502 21.143V10.8572C22.7502 9.97097 22.0292 9.25 21.143 9.25ZM20.8216 19.5358L16.3215 19.2144V20.8216L13.1072 21.4644V19.6278L11.1786 20.1787L11.5 14.3929L11.1786 11.8215H13.1072V10.8572H18.5715L18.3571 11.8215H20.8216L20.5001 14.0715L20.8216 19.5358Z" fill="white"/>
<path d="M15.6786 15.0358V13.4286H17.3414L17.7702 11.5H13.75V20.6631L15.6786 20.306V16.9643H17.2858V15.0358H15.6786Z" fill="white"/>
</svg>
