<svg width="24" height="24" viewBox="0 0 24 24" fill="none" xmlns="http://www.w3.org/2000/svg">
<path d="M6.99153 9.5682C6.27376 9.36309 6.32499 9.36309 6.42744 8.69663C6.47883 8.28654 6.52997 7.92768 6.52997 7.51751C6.52997 7.21004 6.63259 7.10734 6.94014 7.10734C7.50403 7.10734 7.45285 7.10734 7.40154 6.54345C7.29901 5.67197 7.45285 4.85163 7.96538 4.13386C8.27306 3.72369 8.63197 3.51871 9.14454 3.46745C9.24691 3.46745 9.34961 3.46745 9.4521 3.51875C9.55463 3.51875 9.65712 3.56994 9.75965 3.62124C9.75965 3.51875 9.81096 3.36479 9.75965 3.26238C9.4521 2.23714 10.1185 1.10916 11.1951 1.00671C11.554 0.955407 11.9129 1.21174 12.2204 1.31427C12.8355 1.46803 12.8868 2.03199 12.9381 2.5447C12.9894 2.85217 12.9894 3.21103 12.528 3.36483C12.4255 3.41614 12.3743 3.72369 12.323 3.92876C12.9381 4.08252 12.9381 3.82631 13.502 3.62124C14.0659 3.72369 13.9634 3.87766 14.3223 3.87766H18.1672C18.3722 3.87766 18.5261 3.98015 18.7311 4.03133C18.7311 3.82631 19.0387 3.98015 19.1925 4.39024C19.6538 4.33901 20.1152 4.33901 20.5254 4.28774C20.7305 4.28774 20.9868 4.28774 21.1918 4.33913C21.2431 4.33913 21.2944 4.44154 21.2944 4.44154C21.2944 4.49285 21.1918 4.59534 21.1918 4.59534H20.5254C20.0641 4.59534 19.6026 4.54403 19.1925 4.59534C18.4746 4.69787 17.757 4.85175 17.0393 4.85175C16.3215 4.80045 15.809 5.51821 15.9627 6.18467C16.014 6.33851 16.0651 6.49235 16.1164 6.64607C15.7063 6.7486 15.6551 7.05624 15.6039 7.36384C15.5526 7.9278 15.0912 8.23532 14.681 8.44046C14.4246 8.54291 14.0659 8.44047 13.7582 8.33793C13.2969 8.18413 12.8867 7.92785 12.4252 7.72278C12.3228 7.97911 12.169 8.23536 12.579 8.3892C12.6815 8.44051 12.7329 8.59422 12.7329 8.6968C12.6815 9.46583 12.6304 10.1835 12.5278 10.9525C12.4764 11.2088 12.3228 11.3626 12.0151 11.2088C11.9637 11.2088 11.7587 11.3113 11.7587 11.3626C11.8101 11.6189 11.8101 11.9265 11.9637 12.1316C12.6815 12.9519 13.1429 13.9259 13.5018 14.9001C13.6042 15.1563 13.8094 15.4127 13.912 15.7203C14.1684 16.4893 13.9633 17.207 13.912 17.976C13.8607 18.2835 13.912 18.5911 13.912 18.95C13.912 19.155 13.912 19.3602 13.8607 19.5652C13.8094 19.8216 13.7582 20.0779 13.7069 20.3342C13.7069 21.1545 14.1172 21.7697 14.8861 22.0773C15.0398 22.1286 15.1424 22.1797 15.245 22.2824C15.3474 22.3849 15.3986 22.5388 15.3474 22.6412C15.3474 22.6925 15.1423 22.7951 15.091 22.7951L13.2453 22.6412H12.4763C12.1688 22.6412 12.015 22.5388 12.1174 22.1799C12.22 21.5646 12.5277 20.9496 12.3739 20.2831C12.3226 19.9755 12.2201 19.6679 12.1689 19.3604C12.0663 18.7965 11.9637 18.2837 11.9637 17.7198C11.9637 17.4122 12.1176 17.1559 12.1689 16.8483C12.2713 16.4381 12.1176 16.3357 11.7075 16.233C11.5537 16.233 11.3485 16.0792 11.1949 15.9254C10.8872 15.5153 10.631 15.1053 10.3233 14.6438C10.2721 14.5925 10.2209 14.4388 10.1696 14.4388C9.75941 14.49 9.60561 14.1311 9.40054 13.7722C9.09295 14.4388 8.78527 15.0027 8.52906 15.5665C8.47775 15.7203 8.47776 15.9254 8.37522 16.0792C8.32392 16.233 8.22142 16.4381 8.11889 16.5918C7.8624 17.0021 7.60619 17.3609 7.34974 17.7198C7.34974 17.771 7.29855 17.771 7.29855 17.8222C7.45235 18.6938 6.83724 19.3603 6.58079 20.078C6.52948 20.3343 6.17062 20.488 6.06808 20.7443C5.81171 21.3084 5.70922 21.8723 5.96568 22.4875C6.11943 22.8463 6.01698 23 5.60681 23H4.73533C4.42765 23 4.27385 22.795 4.32516 22.4875C4.42757 21.9235 4.58153 21.3596 4.68402 20.7957C4.73533 20.5392 4.68402 20.2318 4.73533 19.9241C4.78655 19.6166 4.83774 19.3603 4.889 19.0526C4.99145 18.745 5.04284 18.4375 5.1966 18.1298C5.35032 17.7709 5.50416 17.412 5.70918 17.0533C5.86302 16.7968 6.01686 16.5918 6.11943 16.3355C6.17066 16.2329 6.22188 16.079 6.22188 15.9253L6.37572 13.9259C6.37572 13.7721 6.32441 13.567 6.32441 13.4132C6.32441 13.0543 6.2731 12.6954 6.2731 12.3366C6.2731 12.2341 6.32441 12.0803 6.37564 12.0803C6.7345 11.9777 6.58066 11.7214 6.58066 11.5676C6.52936 11.1574 6.47825 10.7986 6.42686 10.3885C6.58128 10.0808 6.5301 9.72195 6.99153 9.5682ZM14.4763 6.33843C14.6813 5.97957 14.9376 5.72316 15.0915 5.41564C15.1427 5.31315 15.0915 5.108 14.9891 5.05678C14.9377 5.00539 14.7326 5.05678 14.6302 5.108C14.425 5.26184 14.3225 5.46687 14.1175 5.72316C14.22 5.87704 14.3225 6.08206 14.4763 6.33843Z" fill="#626F8C"/>
</svg>
