<svg width="24" height="24" viewBox="0 0 24 24" fill="none" xmlns="http://www.w3.org/2000/svg">
<path d="M18.8573 3H5.14288C3.9613 3 3 3.9613 3 5.14288V18.8573C3 20.0389 3.9613 21.0002 5.14288 21.0002H18.8573C20.0389 21.0002 21.0002 20.0389 21.0002 18.8573V5.14288C21.0002 3.9613 20.0389 3 18.8573 3ZM18.4287 16.7144L12.4287 16.2859V18.4287L8.14291 19.2859V16.837L5.57146 17.5716L6.00003 9.85722L5.57146 6.42861H8.14291V5.14288H15.4287L15.1428 6.42861H18.4287L18.0002 9.42864L18.4287 16.7144Z" fill="#626F8C"/>
<path d="M11.5715 10.7143V8.57146H13.7885L14.3602 6H9V18.2174L11.5715 17.7413V13.2858H13.7143V10.7143H11.5715Z" fill="#626F8C"/>
</svg>
