<svg width="46" height="46" viewBox="0 0 46 46" fill="none" xmlns="http://www.w3.org/2000/svg">
<path d="M20 1.73205C21.8564 0.660254 24.1436 0.660254 26 1.73205L39.9186 9.76795C41.775 10.8397 42.9186 12.8205 42.9186 14.9641V31.0359C42.9186 33.1795 41.775 35.1603 39.9186 36.2321L26 44.2679C24.1436 45.3397 21.8564 45.3397 20 44.2679L6.08142 36.2321C4.22501 35.1603 3.08142 33.1795 3.08142 31.0359V14.9641C3.08142 12.8205 4.22501 10.8397 6.08142 9.76795L20 1.73205Z" fill="#202338"/>
<g clip-path="url(#clip0_185_16345)">
<path fill-rule="evenodd" clip-rule="evenodd" d="M23 16.85C25.0063 16.85 25.2406 16.8594 26.0281 16.8969C26.7594 16.925 27.1531 17.0469 27.425 17.15C27.7719 17.2906 28.025 17.45 28.2875 17.7125C28.55 17.975 28.7094 18.2281 28.85 18.575C28.9437 18.8375 29.075 19.2312 29.1031 19.9719C29.1406 20.7594 29.15 21.0031 29.15 23C29.15 25.0063 29.1406 25.2406 29.1031 26.0281C29.075 26.7594 28.9531 27.1531 28.85 27.425C28.7094 27.7719 28.55 28.025 28.2875 28.2875C28.025 28.55 27.7719 28.7094 27.425 28.85C27.1625 28.9437 26.7687 29.075 26.0281 29.1031C25.2406 29.1406 24.9969 29.15 23 29.15C20.9937 29.15 20.7594 29.1406 19.9719 29.1031C19.4952 29.0995 19.0226 29.0139 18.575 28.85C18.2491 28.7293 17.9543 28.5371 17.7125 28.2875C17.4629 28.0457 17.2707 27.7509 17.15 27.425C17.0562 27.1625 16.925 26.7687 16.8969 26.0281C16.8594 25.2406 16.85 24.9969 16.85 23C16.85 20.9937 16.8594 20.7594 16.8969 19.9719C16.925 19.2406 17.0469 18.8469 17.15 18.575C17.2906 18.2281 17.45 17.975 17.7125 17.7125C17.975 17.45 18.2281 17.2906 18.575 17.15C18.8375 17.0562 19.2312 16.925 19.9719 16.8969C20.7594 16.8594 21.0031 16.85 23 16.85V16.85ZM23 15.5C20.9656 15.5 20.7031 15.5 19.9062 15.5469C19.1094 15.5844 18.5656 15.7062 18.0875 15.8937C17.5906 16.0812 17.1781 16.3438 16.7563 16.7563C16.3438 17.1781 16.0812 17.6 15.8937 18.0875C15.7062 18.5562 15.5844 19.1094 15.5469 19.9062C15.5 20.7031 15.5 20.9656 15.5 23C15.5 25.0344 15.5 25.2969 15.5469 26.0938C15.5844 26.8906 15.7062 27.4344 15.8937 27.9125C16.0812 28.4094 16.3438 28.8219 16.7563 29.2437C17.1781 29.6562 17.6 29.9187 18.0875 30.1062C18.5562 30.2937 19.1094 30.4156 19.9062 30.4531C20.7031 30.4906 20.9656 30.5 23 30.5C25.0344 30.5 25.2969 30.5 26.0938 30.4531C26.7152 30.441 27.3302 30.3238 27.9125 30.1062C28.4094 29.9187 28.8219 29.6562 29.2437 29.2437C29.6562 28.8219 29.9187 28.4 30.1062 27.9125C30.2937 27.4437 30.4156 26.8906 30.4531 26.0938C30.4906 25.2969 30.5 25.0344 30.5 23C30.5 20.9656 30.5 20.7031 30.4531 19.9062C30.441 19.2848 30.3238 18.6698 30.1062 18.0875C29.9187 17.5906 29.6562 17.1781 29.2437 16.7563C28.8219 16.3438 28.4 16.0812 27.9125 15.8937C27.4437 15.7062 26.8906 15.5844 26.0938 15.5469C25.2969 15.5 25.0344 15.5 23 15.5ZM23.0188 19.1563C21.9956 19.1563 21.0143 19.5627 20.2909 20.2862C19.5674 21.0097 19.1609 21.9909 19.1609 23.0141C19.1609 24.0372 19.5674 25.0185 20.2909 25.7419C21.0143 26.4654 21.9956 26.8719 23.0188 26.8719C24.0419 26.8719 25.0232 26.4654 25.7466 25.7419C26.4701 25.0185 26.8766 24.0372 26.8766 23.0141C26.8766 21.9909 26.4701 21.0097 25.7466 20.2862C25.0232 19.5627 24.0419 19.1563 23.0188 19.1563V19.1563ZM23.0188 25.5125C22.6778 25.5334 22.3361 25.4843 22.0149 25.3682C21.6936 25.2521 21.3995 25.0714 21.1506 24.8374C20.9018 24.6033 20.7035 24.3208 20.568 24.0072C20.4324 23.6937 20.3625 23.3557 20.3625 23.0141C20.3625 22.6725 20.4324 22.3345 20.568 22.0209C20.7035 21.7073 20.9018 21.4248 21.1506 21.1908C21.3995 20.9567 21.6936 20.7761 22.0149 20.66C22.3361 20.5438 22.6778 20.4947 23.0188 20.5156C23.6549 20.5546 24.2523 20.8348 24.6889 21.2991C25.1256 21.7633 25.3688 22.3767 25.3688 23.0141C25.3688 23.6514 25.1256 24.2648 24.6889 24.7291C24.2523 25.1933 23.6549 25.4735 23.0188 25.5125V25.5125ZM27.8844 18.9781C27.8844 19.2143 27.7905 19.4409 27.6235 19.6079C27.4565 19.7749 27.23 19.8687 26.9938 19.8687C26.7575 19.8687 26.531 19.7749 26.364 19.6079C26.197 19.4409 26.1031 19.2143 26.1031 18.9781C26.1031 18.7419 26.197 18.5154 26.364 18.3484C26.531 18.1813 26.7575 18.0875 26.9938 18.0875C27.23 18.0875 27.4565 18.1813 27.6235 18.3484C27.7905 18.5154 27.8844 18.7419 27.8844 18.9781V18.9781Z" fill="#8997A9"/>
</g>
<defs>
<clipPath id="clip0_185_16345">
<rect width="15" height="15" fill="white" transform="translate(15.5 15.5)"/>
</clipPath>
</defs>
</svg>
