<svg width="24" height="24" viewBox="0 0 24 24" fill="none" xmlns="http://www.w3.org/2000/svg">
<path fill-rule="evenodd" clip-rule="evenodd" d="M12 4.62C14.4075 4.62 14.6887 4.63125 15.6337 4.67625C16.5112 4.71 16.9838 4.85625 17.31 4.98C17.7263 5.14875 18.03 5.34 18.345 5.655C18.66 5.97 18.8512 6.27375 19.02 6.69C19.1325 7.005 19.29 7.4775 19.3237 8.36625C19.3687 9.31125 19.38 9.60375 19.38 12C19.38 14.4075 19.3687 14.6887 19.3237 15.6337C19.29 16.5112 19.1437 16.9838 19.02 17.31C18.8512 17.7263 18.66 18.03 18.345 18.345C18.03 18.66 17.7263 18.8512 17.31 19.02C16.995 19.1325 16.5225 19.29 15.6337 19.3237C14.6887 19.3687 14.3962 19.38 12 19.38C9.5925 19.38 9.31125 19.3687 8.36625 19.3237C7.79421 19.3195 7.22718 19.2167 6.69 19.02C6.29889 18.8752 5.94521 18.6445 5.655 18.345C5.35547 18.0548 5.12481 17.7011 4.98 17.31C4.8675 16.995 4.71 16.5225 4.67625 15.6337C4.63125 14.6887 4.62 14.3962 4.62 12C4.62 9.5925 4.63125 9.31125 4.67625 8.36625C4.71 7.48875 4.85625 7.01625 4.98 6.69C5.14875 6.27375 5.34 5.97 5.655 5.655C5.97 5.34 6.27375 5.14875 6.69 4.98C7.005 4.8675 7.4775 4.71 8.36625 4.67625C9.31125 4.63125 9.60375 4.62 12 4.62ZM12 3C9.55875 3 9.24375 3 8.2875 3.05625C7.33125 3.10125 6.67875 3.2475 6.105 3.4725C5.50875 3.6975 5.01375 4.0125 4.5075 4.5075C4.0125 5.01375 3.6975 5.52 3.4725 6.105C3.2475 6.6675 3.10125 7.33125 3.05625 8.2875C3 9.24375 3 9.55875 3 12C3 14.4412 3 14.7563 3.05625 15.7125C3.10125 16.6687 3.2475 17.3212 3.4725 17.895C3.6975 18.4913 4.0125 18.9862 4.5075 19.4925C5.01375 19.9875 5.52 20.3025 6.105 20.5275C6.6675 20.7525 7.33125 20.8988 8.2875 20.9438C9.24375 20.9888 9.55875 21 12 21C14.4412 21 14.7563 21 15.7125 20.9438C16.4583 20.9293 17.1962 20.7885 17.895 20.5275C18.4913 20.3025 18.9862 19.9875 19.4925 19.4925C19.9875 18.9862 20.3025 18.48 20.5275 17.895C20.7525 17.3325 20.8988 16.6687 20.9438 15.7125C20.9888 14.7563 21 14.4412 21 12C21 9.55875 21 9.24375 20.9438 8.2875C20.9293 7.54171 20.7885 6.80377 20.5275 6.105C20.3025 5.50875 19.9875 5.01375 19.4925 4.5075C18.9862 4.0125 18.48 3.6975 17.895 3.4725C17.3325 3.2475 16.6687 3.10125 15.7125 3.05625C14.7563 3 14.4412 3 12 3ZM12.0225 7.3875C10.7947 7.3875 9.61721 7.87524 8.74904 8.74341C7.88086 9.61159 7.39313 10.7891 7.39313 12.0169C7.39313 13.2447 7.88086 14.4222 8.74904 15.2903C9.61721 16.1585 10.7947 16.6462 12.0225 16.6462C13.2503 16.6462 14.4278 16.1585 15.296 15.2903C16.1641 14.4222 16.6519 13.2447 16.6519 12.0169C16.6519 10.7891 16.1641 9.61159 15.296 8.74341C14.4278 7.87524 13.2503 7.3875 12.0225 7.3875ZM12.0225 15.015C11.6133 15.0401 11.2034 14.9811 10.8178 14.8418C10.4323 14.7025 10.0794 14.4857 9.78077 14.2048C9.48217 13.924 9.24422 13.585 9.08157 13.2087C8.91892 12.8324 8.83501 12.4268 8.83501 12.0169C8.83501 11.6069 8.91892 11.2013 9.08157 10.8251C9.24422 10.4488 9.48217 10.1098 9.78077 9.82891C10.0794 9.54804 10.4323 9.33127 10.8178 9.19195C11.2034 9.05262 11.6133 8.99367 12.0225 9.01875C12.7859 9.06554 13.5027 9.40177 14.0267 9.95889C14.5507 10.516 14.8425 11.252 14.8425 12.0169C14.8425 12.7817 14.5507 13.5177 14.0267 14.0749C13.5027 14.632 12.7859 14.9682 12.0225 15.015ZM17.8612 7.17375C17.8612 7.4572 17.7486 7.72904 17.5482 7.92947C17.3478 8.1299 17.076 8.2425 16.7925 8.2425C16.5091 8.2425 16.2372 8.1299 16.0368 7.92947C15.8363 7.72904 15.7238 7.4572 15.7238 7.17375C15.7238 6.8903 15.8363 6.61846 16.0368 6.41803C16.2372 6.2176 16.5091 6.105 16.7925 6.105C17.076 6.105 17.3478 6.2176 17.5482 6.41803C17.7486 6.61846 17.8612 6.8903 17.8612 7.17375Z" fill="#3D475F"/>
</svg>
