<svg width="78" height="34" viewBox="0 0 78 34" fill="none" xmlns="http://www.w3.org/2000/svg">
<path fill-rule="evenodd" clip-rule="evenodd" d="M74.6429 15.8012H66.8854C65.4939 15.8012 64.3391 16.9559 64.3391 18.3475V25.0094C64.3391 26.401 65.4939 27.5557 66.8854 27.5557H74.6429C76.0345 27.5557 77.1892 26.401 77.1892 25.0094V18.3475C77.1892 16.9559 76.0345 15.8012 74.6429 15.8012ZM46.1892 7.03706H45.2417V6.85941C45.5082 6.85941 45.6562 6.80019 45.5378 6.59293C45.3601 6.23763 46.1299 6.26724 46.2484 6.32646C46.426 6.4745 46.3076 6.85941 46.1892 7.03706ZM44.8864 7.27393H46.0411C45.9227 7.48119 45.5674 8.13257 45.3305 8.13257C45.2121 7.98453 44.916 7.57001 44.8864 7.27393ZM66.9447 18.3475H74.6133V25.0094H66.9447V18.3475ZM51.193 18.3475H61.852C61.852 16.9559 60.6973 15.8012 59.3057 15.8012H51.1042C49.7126 15.8012 48.5578 16.9559 48.5578 18.3475V25.0094C48.5578 26.401 49.7126 27.5557 51.1042 27.5557H59.3057C60.6973 27.5557 61.852 26.401 61.852 25.0094V20.6273H53.2064C53.2064 21.7228 54.0946 22.5815 55.1605 22.5815H59.4241V25.0094H51.193V18.3475ZM17.8835 18.3475H28.0688C28.0688 16.9559 26.9141 15.8012 25.5225 15.8012H17.6466C16.255 15.8012 15.1003 16.9559 15.1003 18.3475V20.4201C15.1003 21.8117 16.255 22.9664 17.6466 22.9664H25.5521V25.039H15.1003C15.1003 26.4306 16.255 27.5853 17.6466 27.5853H25.7889C27.1805 27.5853 28.3353 26.4306 28.3353 25.039V22.9664C28.3353 21.5748 27.1805 20.4201 25.7889 20.4201H17.8835V18.3475ZM3.22732 18.3475H12.8501C12.8501 16.9559 11.6953 15.8012 10.3037 15.8012H2.54633C1.15473 15.8012 0 16.9559 0 18.3475V25.0094C0 26.401 1.15473 27.5557 2.54633 27.5557H10.3037C11.6953 27.5557 12.8501 26.401 12.8501 25.0094H3.22732V18.3475ZM48.617 5.88233C48.5578 5.91194 48.4986 5.94155 48.4394 5.94155C48.0841 6.44489 48.2914 6.38567 47.64 6.8298C47.64 7.68844 47.6696 7.77727 47.8768 8.54709C47.8768 8.5767 47.8768 8.5767 47.8768 8.60631C47.8768 8.63591 47.8472 8.63591 47.8472 8.63591C47.6992 8.66552 47.4623 8.72474 47.3439 8.75435C47.3439 8.78396 47.4031 9.25769 47.3439 9.6426C47.2254 10.2052 45.8635 11.4487 45.5674 11.5375C45.1232 11.6264 44.6199 11.2415 43.8205 10.8862C43.6132 10.7973 42.873 10.3236 42.4881 10.1756C42.1624 10.0571 41.8663 10.8269 42.2512 11.0342C42.4289 11.123 42.725 11.2711 42.8138 11.5079C43.0803 12.2185 42.7842 14.9425 42.2216 15.4755C41.9552 15.4755 41.7183 15.2386 41.5406 15.2978C41.1853 15.5051 41.4222 16.571 41.5406 16.7486C43.702 18.9693 43.4652 20.6273 44.383 21.8709C44.7976 21.8709 44.5311 22.315 44.8568 22.848C44.9456 23.1144 44.8272 23.5586 44.7976 23.7362C44.7976 23.9731 44.7976 24.1803 44.7976 24.4172C44.7679 24.4764 44.7383 24.5652 44.7383 24.6245C44.7383 24.8317 44.7383 25.0094 44.7383 25.2166C44.6791 25.5127 44.5903 25.8976 44.5311 26.1641C44.4126 26.7267 44.8864 27.1708 44.5903 27.7037C44.5903 28.0294 44.5903 27.9702 44.383 28.2367C44.383 28.74 44.2646 29.8356 44.383 30.2205C44.4719 30.4869 45.4193 31.6121 45.6858 31.7305C46.278 31.997 47.1366 31.9377 46.8405 32.8556C45.1232 33.3886 44.0573 32.5595 43.1395 32.5595L43.1099 32.7076C42.5177 32.7076 42.0736 32.5595 41.9255 32.5299C41.9255 32.3819 42.1032 31.1679 42.192 30.9607C42.2512 30.8718 42.3104 30.7534 42.3993 30.6646C42.4585 30.4573 42.3401 28.9473 42.3104 28.5328C41.9551 28.2663 41.8663 27.4373 41.8663 26.9931C41.7479 26.6378 41.7479 26.2233 41.7479 25.7792C41.7479 25.5719 41.5998 25.2462 41.6887 24.9798C41.7479 24.8021 41.9551 24.7133 41.9848 24.5653C41.9848 24.3876 41.9848 24.2396 41.9848 24.0619C42.0736 23.529 42.044 23.2921 41.7183 22.9664C40.9188 22.9664 40.8004 23.0256 40.3859 22.3446C40.2379 22.1374 39.1423 20.3609 39.0239 20.3312C38.1061 19.9167 38.2837 20.0944 37.8692 19.3542C37.8396 19.3542 37.6027 19.443 37.3955 19.7687C37.0698 20.272 36.4776 21.8709 36.2999 22.4334C36.2111 22.7591 36.2999 23.0848 36.1519 23.3513C36.0631 23.529 35.7078 23.5882 35.6486 23.7362C35.3229 24.3284 35.5597 24.2692 34.938 24.6837C34.8195 24.8317 34.8195 25.039 34.7307 25.2166C34.6715 25.2759 34.6419 25.3351 34.5826 25.4239C34.4642 25.6608 34.7011 26.0457 34.6419 26.1937C34.5234 26.549 34.405 26.9339 34.257 27.2596C33.9609 27.9406 34.0201 28.8289 33.724 29.2434C33.576 29.4506 33.2207 29.2434 32.9542 29.421C32.9246 29.5691 32.5101 30.5165 32.4212 30.783C32.4212 31.2864 32.4212 31.7897 32.4212 32.3227C32.5101 32.5891 32.7173 32.826 32.6581 33.1517C32.5989 33.507 31.3849 33.507 30.7336 33.3886C30.2894 33.3293 30.171 33.0037 30.171 32.6187C30.171 32.1746 31.0592 29.3026 31.0296 29.1249C30.3486 28.3551 31.2073 27.5853 31.4738 26.8747C31.5922 26.5194 31.533 26.0457 31.6514 25.72C31.8883 25.2759 32.1251 24.8613 32.362 24.4172C32.8061 24.0027 32.5989 23.9731 32.8358 23.6178C33.043 23.2921 33.2799 23.0848 33.1318 22.5815C32.8358 21.6044 33.4575 20.2128 33.5167 19.1765C33.3983 19.0581 33.043 19.0877 32.9838 18.7916C32.895 18.1402 33.2207 17.0151 33.4279 16.9263C33.5167 16.8671 33.6352 16.9263 33.6944 16.8671C33.6944 16.3933 33.2207 13.7286 33.576 13.5805C33.8128 13.4917 34.3162 13.4621 34.405 13.4029C34.405 13.2844 34.3162 13.0476 34.2273 13.0476C34.0793 13.018 33.7536 12.9587 33.4871 12.8995C32.6877 12.7219 33.4279 9.58338 33.4279 9.55378C33.6352 9.25769 34.6715 9.6426 34.7899 9.16887C35.1156 8.72474 34.5234 7.06667 35.6782 4.99408C36.0631 4.31308 36.8329 3.60248 37.6915 3.89857C37.9876 3.98739 37.81 4.43152 38.3133 3.95778C38.3133 3.69131 38.1949 3.48405 38.1357 3.24718C37.277 0.700855 40.1786 -0.690742 42.2216 0.760071C42.4585 0.848897 42.5769 0.908114 42.7546 1.02655C42.873 1.61872 43.4356 2.6254 42.873 3.3064C42.6361 3.36561 42.3401 3.48405 42.1624 3.60248C42.1624 3.83935 42.192 4.04661 42.2216 4.19465C42.2512 4.31308 42.3401 4.3723 42.1328 4.46113C42.1032 4.46113 42.1328 4.54995 42.1328 4.57956C42.6065 4.66838 43.1099 4.49073 43.4356 4.3723H43.8205V3.89857H43.9093H43.9981V3.51366H44.1758V4.16504H44.6495V4.3723H51.6667V4.7276H51.9628V3.39522H52.2293V4.49073H52.8214V5.11251H54.6868V4.93486H54.9829V5.02369H55.8711V5.52703H54.9829V5.61585H54.6868V5.4382H52.8214V5.61585C52.555 5.61585 52.2885 5.61585 51.9924 5.61585V5.49742H51.6371V5.88233H48.617Z" fill="white"/>
</svg>
