<svg width="97" height="18" viewBox="0 0 97 18" fill="none" xmlns="http://www.w3.org/2000/svg">
<path d="M2.53512 0.805255C4.23145 -0.0218226 6.21596 -0.0475956 8.03413 0.324941C9.41181 0.655303 10.8738 1.43552 11.394 2.83663C11.9141 4.45096 11.8017 6.17306 11.804 7.84361C10.1522 7.83658 8.50038 7.84361 6.85091 7.84127C6.81577 6.45422 6.92589 5.06013 6.78297 3.67777C6.81343 2.72183 5.11944 2.72885 5.14287 3.6848C4.9648 5.8591 5.1007 8.04745 5.05852 10.2288C5.09835 11.6205 4.95777 13.031 5.17802 14.411C5.31391 14.964 6.00744 15.0062 6.44558 14.8187C6.78297 14.5774 6.79 14.1346 6.82514 13.762C6.87903 12.7264 6.83686 11.6908 6.85091 10.6552C8.50507 10.6505 10.1569 10.6529 11.811 10.6529C11.7618 12.225 11.9024 13.8979 11.2417 15.367C10.1452 17.1828 7.8584 17.8646 5.84343 17.8013C4.06744 17.7849 2.03372 17.3749 0.930165 15.8449C0.140576 14.6078 0.168692 13.0661 0.105431 11.651C0.117146 9.14163 0.0210829 6.6276 0.194465 4.12294C0.267097 2.68199 1.25584 1.40975 2.53512 0.805255Z" fill="white"/>
<path d="M14.4704 0.409473C16.8696 0.376671 19.2712 0.379014 21.6704 0.409473C22.5818 6.09358 23.5565 11.7683 24.4843 17.4501C22.9403 17.4454 21.3963 17.4501 19.8522 17.4454C19.7163 16.3817 19.6156 15.3133 19.4492 14.2519C18.8986 14.2613 18.3457 14.2613 17.7951 14.2589C17.8935 13.3077 18.0013 12.3564 18.1043 11.4051C18.4441 11.4051 18.7815 11.4028 19.1212 11.4028C18.8119 8.96844 18.58 6.52235 18.2074 4.09735C17.7248 8.55373 17.1437 12.9984 16.6142 17.4501C15.0655 17.4477 13.5144 17.4477 11.9657 17.4477C12.7904 11.7683 13.662 6.09358 14.4704 0.409473Z" fill="white"/>
<path d="M25.3325 0.393065C26.9749 0.388379 28.6197 0.390722 30.2645 0.390722C30.2668 4.93613 30.2645 9.4792 30.2668 14.0246C31.2719 14.0293 32.2771 14.027 33.2822 14.027C33.2869 15.168 33.2846 16.3067 33.2846 17.4477C30.6347 17.4501 27.9847 17.4454 25.3348 17.4477C25.3301 11.7636 25.3348 6.07717 25.3325 0.393065Z" fill="white"/>
<path d="M34.4561 0.393065C36.1032 0.388379 37.7527 0.390722 39.4022 0.390722C39.4069 4.93613 39.4022 9.4792 39.4045 14.0246C40.4003 14.0293 41.3961 14.027 42.3918 14.027C42.3942 15.168 42.3942 16.3067 42.3942 17.4477H34.4585C34.4538 11.7636 34.4585 6.07717 34.4561 0.393065Z" fill="white"/>
<path d="M48.5281 0.392771C50.7071 0.37637 52.8884 0.392771 55.065 0.488834C56.2108 0.570839 57.4104 0.650501 58.4319 1.22922C59.3527 1.78217 59.9174 2.82949 59.9268 3.90024C60.0767 6.86647 59.99 9.84207 59.9994 12.8106C59.9408 14.036 60.0697 15.4606 59.1817 16.4376C58.1929 17.342 56.7731 17.3865 55.5055 17.4381C53.1813 17.4638 50.8547 17.4381 48.5281 17.4474C48.5257 11.7633 48.5281 6.07688 48.5281 0.392771ZM53.4741 3.3262C53.4765 7.07031 53.4765 10.8121 53.4741 14.5562C53.9451 14.4531 54.662 14.5491 54.8706 13.9915C55.1611 12.7614 55.0065 11.4775 55.0463 10.2216C55.0065 8.16917 55.133 6.10734 54.9737 4.05722C54.9057 3.31917 54.0201 3.34963 53.4741 3.3262Z" fill="white"/>
<path d="M61.2342 0.392868C62.8743 0.388182 64.5144 0.392868 66.1545 0.390525C66.1568 4.53294 66.1545 8.67535 66.1545 12.8178C66.1639 13.366 66.1521 13.919 66.2552 14.4602C66.3302 15.0811 67.4244 15.053 67.4713 14.4298C67.5814 13.8955 67.5697 13.3473 67.5767 12.8061C67.572 8.66833 67.579 4.5306 67.572 0.392868C69.2121 0.385839 70.8522 0.392868 72.4946 0.390525C72.4899 4.37362 72.5087 8.35671 72.4853 12.3375C72.4337 13.434 72.5556 14.6406 71.9042 15.5942C71.1287 16.8946 69.6221 17.5553 68.1648 17.7099C66.3185 17.9208 64.3106 17.7029 62.7642 16.5923C61.7918 15.9012 61.2834 14.7109 61.2951 13.5347C61.178 9.15567 61.26 4.77427 61.2342 0.392868Z" fill="white"/>
<path d="M73.556 0.390625H84.3877C84.39 1.53166 84.3876 2.67036 84.39 3.8114C83.4106 3.8114 82.4312 3.80906 81.4542 3.81374V17.4476C79.8001 17.4476 78.1459 17.45 76.4918 17.4453V3.81374C75.5171 3.8114 74.5424 3.80906 73.5677 3.81374C73.5466 2.6727 73.5583 1.53166 73.556 0.390625Z" fill="white"/>
<path d="M85.2757 0.390484C86.7939 0.409228 88.3122 0.350653 89.8304 0.420943C90.763 3.48324 91.7822 6.51742 92.7475 9.57034C92.9701 10.3248 93.3356 11.0628 93.3121 11.8665C93.3004 13.7573 93.3098 15.6481 93.3051 17.5389C91.7845 17.5412 90.2662 17.5412 88.7456 17.5389C88.7456 15.7254 88.7386 13.9119 88.7503 12.0961C88.755 11.6884 88.7292 11.2737 88.6004 10.8824C87.4851 7.38901 86.3862 3.88858 85.2757 0.390484Z" fill="white"/>
<path d="M92.3726 0.392968C93.8815 0.388282 95.3904 0.392968 96.8993 0.390625C95.8356 3.61927 94.7859 6.85261 93.7222 10.0813C93.0474 7.9257 92.2906 5.79123 91.6791 3.61927C91.822 2.52978 92.1524 1.47075 92.3726 0.392968Z" fill="white"/>
<path d="M41.8318 4.48121C42.6987 4.0993 43.9967 4.4695 44.1397 5.51447C44.2357 6.775 44.2451 8.05428 44.1303 9.31481C43.8679 10.7651 41.4429 10.8331 41.061 9.42727C40.8735 8.30029 40.979 7.14051 40.9743 6.00181C40.9462 5.38561 41.2343 4.72254 41.8318 4.48121ZM42.4222 5.2872C42.3192 6.68128 42.3613 8.08239 42.3965 9.47882L42.7268 9.37104C42.8744 8.08474 42.8299 6.76563 42.7573 5.47464C42.6753 5.42778 42.5066 5.33406 42.4222 5.2872Z" fill="white"/>
<path d="M44.6528 4.4695C45.4002 4.46716 46.1453 4.46482 46.8904 4.4695C46.8881 4.8561 46.8857 5.24503 46.8857 5.63397L45.979 5.641C45.979 6.01354 45.9766 6.38607 45.9766 6.75861C46.2461 6.76095 46.5179 6.76329 46.792 6.76798C46.792 7.12412 46.792 7.48025 46.7943 7.83639C46.5202 7.83873 46.2484 7.84107 45.979 7.84342C45.979 8.67049 45.9766 9.49523 45.979 10.3223C45.5361 10.3223 45.0957 10.3246 44.6552 10.327C44.6528 8.37293 44.6552 6.42122 44.6528 4.4695Z" fill="white"/>
</svg>
