<svg width="88" height="25" viewBox="0 0 88 25" fill="none" xmlns="http://www.w3.org/2000/svg">
<g clip-path="url(#clip0_75_10501)">
<path d="M0 12.1743C0 18.8716 0.0165637 24.3486 0.0386487 24.3486C0.0717761 24.3486 4.57158 23.5149 5.12371 23.4045L5.41081 23.3493V18.8771V14.4104H7.1224H8.83398V13.5933C8.83398 13.146 8.85054 11.9811 8.87263 10.9983L8.90575 9.22045H7.16104H5.41081V7.26041V5.30037H7.42606C8.53583 5.30037 9.44131 5.28933 9.44131 5.27276C9.44131 5.21203 9.88301 0.496895 9.91062 0.259481L9.94375 -1.52588e-05H4.96911H0V12.1743Z" fill="white"/>
<path d="M82.5866 0.712099L78.1807 1.0765V12.0748V23.0731L78.3629 23.1007C78.523 23.1283 87.0533 23.7467 87.2244 23.7412C87.2741 23.7412 87.2907 23.1559 87.2907 21.0082V18.2752H85.4135H83.5363V16.2875V14.2999H85.1374H86.7386V11.9257V9.5516H85.0822H83.4258V7.97805V6.4045L83.5528 6.38241C83.6191 6.36585 84.1822 6.34376 84.8061 6.32168C85.43 6.30511 86.2417 6.27751 86.6171 6.25542L87.2907 6.22229V3.27948V0.331135L87.1416 0.336657C87.0533 0.342176 85.0049 0.507814 82.5866 0.712099Z" fill="white"/>
<path d="M54.3013 1.47421C54.3565 2.02633 54.986 10.3468 54.9749 10.3579C54.9694 10.3689 54.1578 8.37575 53.1695 5.92984C52.1867 3.48393 51.3585 1.45764 51.3364 1.41899C51.3033 1.35826 49.7794 1.63984 47.2783 2.16988L47.0409 2.21957V11.7106V21.2016H49.4978H51.9548L51.9272 20.804C51.872 20.0642 51.6677 13.9467 51.6898 13.7037C51.7063 13.4884 51.872 13.8639 53.44 17.6514C54.3897 19.9538 55.1958 21.8586 55.2178 21.8917C55.251 21.9249 56.0184 21.8752 57.3214 21.7647C58.4533 21.6654 59.3809 21.577 59.3809 21.5715C59.3864 21.566 59.3588 17.5852 59.3201 12.7265C59.2815 7.86779 59.2483 3.27965 59.2483 2.52324L59.2428 1.15949H56.7583H54.2682L54.3013 1.47421Z" fill="white"/>
<path d="M15.4318 1.49607C12.1301 1.71692 10.3136 3.97511 9.73942 8.55773C9.62348 9.50739 9.57379 12.7318 9.6566 13.8581C9.93267 17.5132 10.921 19.8873 12.6767 21.0965C13.6209 21.7424 15.0398 22.0903 16.4422 22.0075C18.0378 21.9191 19.1255 21.4664 20.1028 20.4891C20.9034 19.6885 21.3395 18.9377 21.7592 17.6567C22.3444 15.8679 22.6094 13.1956 22.4769 10.4129C22.3278 7.29889 21.8585 5.36094 20.8923 3.87573C19.9703 2.46229 18.5127 1.61754 16.8121 1.51264C16.5416 1.49607 16.2545 1.47951 16.1772 1.46847C16.0999 1.46295 15.7686 1.47399 15.4318 1.49607ZM16.2103 5.83577C16.6134 6.27194 16.7845 8.01113 16.7845 11.7324C16.7845 16.3151 16.4974 18.2199 15.868 17.8113C15.5975 17.6291 15.3932 16.7402 15.2938 15.266C15.222 14.1894 15.222 9.25893 15.2938 8.22646C15.3987 6.76885 15.5864 5.96275 15.868 5.76951C16.0226 5.65909 16.0502 5.66461 16.2103 5.83577Z" fill="white"/>
<path d="M23.1892 11.534V21.5882H25.7235H28.2522L28.2853 20.887C28.3074 20.495 28.3516 19.2251 28.3847 18.0546C28.4178 16.8841 28.462 15.8571 28.4841 15.7743C28.5117 15.6584 28.7491 16.4038 29.4779 18.9214C30.0079 20.7379 30.4552 22.2452 30.4772 22.2673C30.5214 22.317 35.7003 21.9084 35.7555 21.8532C35.7721 21.8311 35.1979 20.0257 34.4801 17.8282L33.1771 13.8419L33.4532 13.599C34.3697 12.7984 35.1261 11.2524 35.3414 9.72305C35.4353 9.05498 35.3746 7.39861 35.231 6.78576C34.6789 4.38402 33.2158 2.51784 31.3496 1.82216C30.538 1.52402 30.6042 1.52954 26.767 1.50745L23.1892 1.48537V11.534ZM28.8816 6.24467C29.2736 6.43792 29.5938 6.93483 29.765 7.61946C29.8809 8.07773 29.8644 9.52981 29.7374 9.99359C29.5 10.8659 29.0804 11.3739 28.4509 11.5671L28.324 11.6003V8.83966V6.07352L28.5062 6.11217C28.6 6.12873 28.7712 6.18946 28.8816 6.24467Z" fill="white"/>
<path d="M35.5015 4.11325V6.68062H36.9094H38.3173V14.0791V21.4775H40.9675H43.6177V14.5208V7.56402H45.0532H46.4887V4.99665V2.42927L46.3673 2.40719C46.2513 2.37958 35.7223 1.54035 35.5732 1.54588C35.518 1.54588 35.5015 2.098 35.5015 4.11325Z" fill="white"/>
<path d="M60.4023 12.1191V22.1401H63.1354H65.8684V12.1191V2.09805H63.1354H60.4023V12.1191Z" fill="white"/>
<path d="M72.1074 2.79378C69.1149 2.95389 66.6248 3.0864 66.5751 3.0864C66.4812 3.09192 66.4757 3.25204 66.4757 5.6869V8.28189H67.8836H69.2915V15.5423V22.8027H71.9693H74.6471V15.2386V7.67455H76.1379H77.6286V5.07957C77.6286 3.64957 77.612 2.49011 77.59 2.49011C77.5624 2.49563 75.0999 2.62814 72.1074 2.79378Z" fill="white"/>
</g>
<defs>
<clipPath id="clip0_75_10501">
<rect width="88" height="25" fill="white"/>
</clipPath>
</defs>
</svg>
