<svg width="32" height="32" viewBox="0 0 32 32" fill="none" xmlns="http://www.w3.org/2000/svg">
<path d="M27.5308 3.56543L17.5371 10.9879L19.3852 6.60874L27.5308 3.56543Z" fill="#E2761B" stroke="#E2761B" stroke-width="0.100439" stroke-linecap="round" stroke-linejoin="round"/>
<path d="M4.45996 3.56543L14.3733 11.0582L12.6156 6.60874L4.45996 3.56543Z" fill="#E4761B" stroke="#E4761B" stroke-width="0.100439" stroke-linecap="round" stroke-linejoin="round"/>
<path d="M23.9351 20.7705L21.2734 24.8483L26.9684 26.4152L28.6055 20.8609L23.9351 20.7705Z" fill="#E4761B" stroke="#E4761B" stroke-width="0.100439" stroke-linecap="round" stroke-linejoin="round"/>
<path d="M3.40527 20.8609L5.03239 26.4152L10.7273 24.8483L8.06566 20.7705L3.40527 20.8609Z" fill="#E4761B" stroke="#E4761B" stroke-width="0.100439" stroke-linecap="round" stroke-linejoin="round"/>
<path d="M10.4063 13.8801L8.81934 16.2806L14.4741 16.5317L14.2732 10.4551L10.4063 13.8801Z" fill="#E4761B" stroke="#E4761B" stroke-width="0.100439" stroke-linecap="round" stroke-linejoin="round"/>
<path d="M21.5848 13.881L17.6677 10.3857L17.5371 16.5326L23.1818 16.2815L21.5848 13.881Z" fill="#E4761B" stroke="#E4761B" stroke-width="0.100439" stroke-linecap="round" stroke-linejoin="round"/>
<path d="M10.7275 24.8486L14.1224 23.1914L11.1896 20.9014L10.7275 24.8486Z" fill="#E4761B" stroke="#E4761B" stroke-width="0.100439" stroke-linecap="round" stroke-linejoin="round"/>
<path d="M17.8682 23.1914L21.2731 24.8486L20.801 20.9014L17.8682 23.1914Z" fill="#E4761B" stroke="#E4761B" stroke-width="0.100439" stroke-linecap="round" stroke-linejoin="round"/>
<path d="M21.2721 24.8496L17.8672 23.1924L18.1384 25.4121L18.1082 26.3462L21.2721 24.8496Z" fill="#D7C1B3" stroke="#D7C1B3" stroke-width="0.100439" stroke-linecap="round" stroke-linejoin="round"/>
<path d="M10.7266 24.8496L13.8904 26.3462L13.8703 25.4121L14.1214 23.1924L10.7266 24.8496Z" fill="#D7C1B3" stroke="#D7C1B3" stroke-width="0.100439" stroke-linecap="round" stroke-linejoin="round"/>
<path d="M13.9408 19.4351L11.1084 18.6015L13.1071 17.6875L13.9408 19.4351Z" fill="#233447" stroke="#233447" stroke-width="0.100439" stroke-linecap="round" stroke-linejoin="round"/>
<path d="M18.0488 19.4351L18.8825 17.6875L20.8913 18.6015L18.0488 19.4351Z" fill="#233447" stroke="#233447" stroke-width="0.100439" stroke-linecap="round" stroke-linejoin="round"/>
<path d="M10.7271 24.8483L11.2092 20.7705L8.06543 20.8609L10.7271 24.8483Z" fill="#CD6116" stroke="#CD6116" stroke-width="0.100439" stroke-linecap="round" stroke-linejoin="round"/>
<path d="M20.791 20.7705L21.2731 24.8483L23.9348 20.8609L20.791 20.7705Z" fill="#CD6116" stroke="#CD6116" stroke-width="0.100439" stroke-linecap="round" stroke-linejoin="round"/>
<path d="M23.1818 16.2812L17.5371 16.5323L18.0594 19.435L18.893 17.6874L20.9018 18.6014L23.1818 16.2812Z" fill="#CD6116" stroke="#CD6116" stroke-width="0.100439" stroke-linecap="round" stroke-linejoin="round"/>
<path d="M11.1084 18.6014L13.1172 17.6874L13.9408 19.435L14.4731 16.5323L8.81836 16.2812L11.1084 18.6014Z" fill="#CD6116" stroke="#CD6116" stroke-width="0.100439" stroke-linecap="round" stroke-linejoin="round"/>
<path d="M8.81934 16.2812L11.1897 20.9015L11.1094 18.6014L8.81934 16.2812Z" fill="#E4751F" stroke="#E4751F" stroke-width="0.100439" stroke-linecap="round" stroke-linejoin="round"/>
<path d="M20.9022 18.6014L20.8018 20.9015L23.1822 16.2812L20.9022 18.6014Z" fill="#E4751F" stroke="#E4751F" stroke-width="0.100439" stroke-linecap="round" stroke-linejoin="round"/>
<path d="M14.4747 16.5322L13.9424 19.4349L14.6053 22.8599L14.7559 18.3502L14.4747 16.5322Z" fill="#E4751F" stroke="#E4751F" stroke-width="0.100439" stroke-linecap="round" stroke-linejoin="round"/>
<path d="M17.5378 16.5322L17.2666 18.3401L17.3871 22.8599L18.0601 19.4349L17.5378 16.5322Z" fill="#E4751F" stroke="#E4751F" stroke-width="0.100439" stroke-linecap="round" stroke-linejoin="round"/>
<path d="M18.0587 19.4352L17.3857 22.8602L17.8679 23.1916L20.8007 20.9016L20.9011 18.6016L18.0587 19.4352Z" fill="#F6851B" stroke="#F6851B" stroke-width="0.100439" stroke-linecap="round" stroke-linejoin="round"/>
<path d="M11.1084 18.6016L11.1888 20.9016L14.1216 23.1916L14.6037 22.8602L13.9408 19.4352L11.1084 18.6016Z" fill="#F6851B" stroke="#F6851B" stroke-width="0.100439" stroke-linecap="round" stroke-linejoin="round"/>
<path d="M18.1098 26.3462L18.14 25.4121L17.8889 25.1911H14.1023L13.8713 25.4121L13.8914 26.3462L10.7275 24.8496L11.8324 25.7536L14.0722 27.3104H17.919L20.1688 25.7536L21.2737 24.8496L18.1098 26.3462Z" fill="#C0AD9E" stroke="#C0AD9E" stroke-width="0.100439" stroke-linecap="round" stroke-linejoin="round"/>
<path d="M17.8676 23.1908L17.3855 22.8594H14.6033L14.1212 23.1908L13.8701 25.4105L14.1011 25.1896H17.8877L18.1388 25.4105L17.8676 23.1908Z" fill="#161616" stroke="#161616" stroke-width="0.100439" stroke-linecap="round" stroke-linejoin="round"/>
<path d="M27.9523 11.47L28.806 7.37208L27.5304 3.56543L17.8682 10.7368L21.5844 13.8806L26.8374 15.4173L28.0025 14.0613L27.5003 13.6998L28.3038 12.9666L27.6811 12.4845L28.4846 11.8718L27.9523 11.47Z" fill="#763D16" stroke="#763D16" stroke-width="0.100439" stroke-linecap="round" stroke-linejoin="round"/>
<path d="M3.19434 7.37208L4.04807 11.47L3.5057 11.8718L4.30921 12.4845L3.69653 12.9666L4.50005 13.6998L3.99785 14.0613L5.1529 15.4173L10.4059 13.8806L14.1221 10.7368L4.45987 3.56543L3.19434 7.37208Z" fill="#763D16" stroke="#763D16" stroke-width="0.100439" stroke-linecap="round" stroke-linejoin="round"/>
<path d="M26.8372 15.4176L21.5842 13.8809L23.1812 16.2814L20.8008 20.9016L23.9345 20.8614H28.6049L26.8372 15.4176Z" fill="#F6851B" stroke="#F6851B" stroke-width="0.100439" stroke-linecap="round" stroke-linejoin="round"/>
<path d="M10.4049 13.8809L5.15194 15.4176L3.4043 20.8614H8.06469L11.1884 20.9016L8.81798 16.2814L10.4049 13.8809Z" fill="#F6851B" stroke="#F6851B" stroke-width="0.100439" stroke-linecap="round" stroke-linejoin="round"/>
<path d="M17.5368 16.5328L17.8682 10.7374L19.3949 6.60938H12.6152L14.1218 10.7374L14.4734 16.5328L14.5939 18.3608L14.6039 22.8605H17.3861L17.4062 18.3608L17.5368 16.5328Z" fill="#F6851B" stroke="#F6851B" stroke-width="0.100439" stroke-linecap="round" stroke-linejoin="round"/>
</svg>
