<svg width="46" height="46" viewBox="0 0 46 46" fill="none" xmlns="http://www.w3.org/2000/svg">
<path d="M20 1.73205C21.8564 0.660254 24.1436 0.660254 26 1.73205L39.9186 9.76795C41.775 10.8397 42.9186 12.8205 42.9186 14.9641V31.0359C42.9186 33.1795 41.775 35.1603 39.9186 36.2321L26 44.2679C24.1436 45.3397 21.8564 45.3397 20 44.2679L6.08142 36.2321C4.22501 35.1603 3.08142 33.1795 3.08142 31.0359V14.9641C3.08142 12.8205 4.22501 10.8397 6.08142 9.76795L20 1.73205Z" fill="#202338"/>
<path d="M27.3762 19.4682H26.1238V22.9287H27.3762V19.4682ZM23.9393 19.4538H22.6869V22.9179H23.9393V19.4538ZM18.6238 16.2051L15.5 19.0876V29.4728H19.25V32.3589L22.3738 29.4764H24.875L30.5 24.282V16.2051H18.6238ZM29.2512 23.7076L26.75 26.0158H24.2488L22.0607 28.0333V26.0158H19.2463V17.361H29.2475V23.7076H29.2512Z" fill="#8997A9"/>
</svg>
