<svg width="24" height="24" viewBox="0 0 24 24" fill="none" xmlns="http://www.w3.org/2000/svg">
<path fill-rule="evenodd" clip-rule="evenodd" d="M13.4112 4.1745C14.9733 2.61238 17.5061 2.61241 19.0681 4.17457L19.8256 4.93204C21.3876 6.49416 21.3876 9.02679 19.8255 10.5889L11.2763 19.1378C10.7789 19.6353 10.1591 19.9927 9.47939 20.1741L6.77676 20.8954C4.54805 21.4903 2.50984 19.4521 3.10459 17.2234L3.82583 14.5207C4.00722 13.8409 4.36469 13.221 4.86216 12.7236L13.4112 4.1745ZM17.6539 5.58875C16.8729 4.80767 15.6065 4.80765 14.8254 5.58872L13.9141 6.50009L17.4999 10.086L18.4113 9.17463C19.1923 8.3936 19.1924 7.12728 18.4113 6.34622L17.6539 5.58875ZM7.91406 12.5001L12.4998 7.9143L16.0857 11.5002L11.4999 16.0859L7.91406 12.5001ZM6.49985 13.9143L6.27637 14.1378C6.02763 14.3865 5.8489 14.6965 5.7582 15.0363L5.03697 17.7391C4.83872 18.482 5.51812 19.1613 6.26102 18.9631L8.96366 18.2417C9.30349 18.151 9.6134 17.9723 9.86212 17.7236L10.0856 17.5001L6.49985 13.9143Z" fill="white"/>
</svg>
