<svg width="18" height="18" viewBox="0 0 18 18" fill="none" xmlns="http://www.w3.org/2000/svg">
<path d="M9.10916 1.3019C9.7029 1.31453 10.2966 1.41559 10.8777 1.60508C10.9156 1.61772 10.9662 1.63035 11.0041 1.64298C11.4715 1.8072 11.9262 2.02196 12.3557 2.29988C13.3158 2.91887 14.2127 3.84105 14.7054 5.01588C15.1602 6.08965 15.2612 7.02446 14.8823 8.13613C14.7938 8.41405 14.6675 8.6667 14.5791 8.94461C14.3012 9.87943 14.4148 10.9153 14.377 11.9133C14.3517 12.4059 14.2633 12.9618 13.9095 13.2271C13.5811 13.4797 13.1642 13.3787 12.7979 13.3155C12.3557 13.2397 11.6483 13.1513 11.3957 13.6187C11.2314 13.9219 11.3325 14.3135 11.4083 14.6293C11.4715 14.8946 11.5346 15.1598 11.5978 15.4125C11.6736 15.7409 11.7241 16.082 11.522 16.3852C11.383 16.5747 11.282 16.5747 11.0672 16.5747C10.6756 16.5747 10.284 16.5747 9.89238 16.5747C9.42498 16.5747 8.95757 16.5747 8.49017 16.5747C8.14909 16.5747 7.82064 16.5621 7.47956 16.5747C7.29007 16.5747 7.10058 16.6 6.91109 16.5873C6.68371 16.5747 6.48159 16.5368 6.38053 16.2968C6.26683 15.9936 6.27946 15.6652 6.35526 15.3493C6.43106 14.9956 6.46895 14.6419 6.46895 14.2756C6.46895 14.1619 6.46895 14.0608 6.46895 13.9471C6.46895 13.9345 6.46895 13.9092 6.46895 13.8966C6.43106 13.126 5.69837 13.2271 5.11727 13.3281C4.75092 13.3913 4.33405 13.4923 4.0056 13.2397C3.66452 12.9618 3.56346 12.4059 3.55083 11.9133C3.51293 10.9153 3.62662 9.89206 3.33607 8.95725C3.24764 8.67933 3.13395 8.42668 3.03289 8.14876C2.65391 7.0371 2.75497 6.10228 3.20975 5.02851C3.81611 3.60103 4.96568 2.56516 6.16577 1.9588C7.08795 1.47876 8.09856 1.27664 9.10916 1.3019Z" fill="#EFECE8"/>
<path opacity="0.3" d="M11.143 16.1578C11.1303 16.221 11.1051 16.2715 11.0545 16.2968C11.0293 16.3094 10.9914 16.3094 10.9535 16.3094C10.8903 16.3094 10.8271 16.2968 10.7892 16.2589C10.7261 16.2083 10.7008 16.1325 10.6882 16.0694C10.6755 16.0189 10.6629 15.9683 10.6376 15.9178C10.6376 15.981 10.6376 16.0567 10.625 16.1199C10.6124 16.1831 10.5745 16.2589 10.524 16.2968C10.4734 16.3347 10.3976 16.3473 10.3218 16.3473C10.2713 16.3473 10.2208 16.3473 10.1702 16.3347C10.0692 16.2968 9.98075 16.2083 9.94286 16.1073C9.90496 16.0062 9.89232 15.8925 9.87969 15.7788C9.87969 15.8799 9.87969 15.981 9.85443 16.0694C9.82916 16.1578 9.766 16.2589 9.67757 16.2968C9.57651 16.3473 9.45018 16.3094 9.33649 16.2715C9.15964 16.1957 9.12174 16.0315 9.12174 15.8546C9.1091 15.9683 9.09647 16.0694 9.05857 16.1831C9.04594 16.2336 9.02068 16.2841 8.98278 16.2968C8.88172 16.3473 8.71749 16.2841 8.62907 16.221C8.55327 16.1578 8.52801 16.0441 8.51537 15.9557C8.50274 15.9178 8.50274 15.8799 8.50274 15.842C8.50274 15.9557 8.47748 16.082 8.40168 16.1704C8.26272 16.3473 7.9848 16.3094 7.89638 16.0946C7.84585 15.981 7.82058 15.8546 7.80795 15.7283C7.79532 15.842 7.78268 15.9431 7.75742 16.0567C7.75742 16.082 7.74479 16.0946 7.74479 16.1199C7.71952 16.2083 7.70689 16.2589 7.60583 16.2968C7.53003 16.322 7.45424 16.3094 7.37844 16.2715C7.27738 16.2083 7.23948 16.082 7.21422 15.9683C7.18895 15.8673 7.17632 15.7536 7.16369 15.6525C7.15105 15.8041 7.13842 15.9304 7.07526 16.0694C7.02473 16.1578 6.96157 16.2462 6.87314 16.2841C6.78471 16.322 6.69628 16.2462 6.64575 16.1831C6.58259 16.082 6.56996 15.9557 6.56996 15.842C6.56996 15.3241 6.78471 14.8314 6.8605 14.3135C6.91103 13.985 6.8984 13.6566 6.83524 13.3407C6.80997 13.2018 6.79734 13.0376 6.69628 12.9365C6.59522 12.8481 6.45626 12.7975 6.34257 12.7723C6.15308 12.747 5.97622 12.886 5.79937 12.9239C5.63514 12.9618 5.47092 12.9491 5.31933 12.886C5.24353 12.8481 5.16774 12.7975 5.11721 12.7344C5.01615 12.6081 5.01615 12.4312 5.02878 12.2796C5.02878 12.2417 5.04141 12.1912 5.05404 12.1533C5.09194 12.027 5.21827 11.9512 5.35723 11.9259C5.66041 11.8754 6.01412 11.9891 6.3173 12.0143C6.65838 12.0396 7.0121 12.0396 7.34054 11.9512C7.21422 11.9385 7.08789 11.9385 6.96157 11.9259C6.70891 11.9133 6.45626 11.888 6.20361 11.8375C5.95096 11.7869 5.71094 11.6859 5.50882 11.5343C5.57198 11.5848 5.72357 11.5974 5.812 11.6227C5.92569 11.648 6.02675 11.6606 6.14045 11.6732C6.36783 11.6985 6.59522 11.6985 6.82261 11.6985C7.29001 11.6859 7.75742 11.6227 8.18693 11.4206C8.1364 11.4459 8.26272 11.888 8.27535 11.9259C8.32588 12.128 8.38905 12.3175 8.46484 12.507C8.45221 12.1785 8.46484 11.8501 8.52801 11.5217C8.55327 11.3574 8.59117 11.2058 8.62907 11.0542C8.65433 10.9784 8.66696 10.9279 8.65433 10.8521C8.65433 10.789 8.61643 10.7132 8.6417 10.65C8.61643 10.7511 8.57854 10.8521 8.55327 10.9532C8.66696 10.5742 8.54064 10.1321 8.23746 9.86678C8.25009 9.94258 8.26272 10.0184 8.23746 10.0815C8.22482 10.1573 8.17429 10.2205 8.0985 10.2331C7.9848 10.2584 7.88374 10.1447 7.82058 10.0436C7.73215 9.87941 7.65636 9.70256 7.53003 9.5636C7.40371 9.42464 7.26475 9.31095 7.15105 9.17199C6.92367 8.86881 6.72155 8.56563 6.45626 8.28771C5.83727 7.63081 5.01615 8.22455 4.97825 6.02648C4.95298 4.5611 5.8499 2.8178 6.45626 1.81982C6.3552 1.85772 6.26677 1.90825 6.16571 1.95878C4.96562 2.56515 3.81605 3.60102 3.22232 5.01587C2.76755 6.08964 2.66649 7.02445 3.04546 8.13612C3.13389 8.41403 3.26022 8.66669 3.34865 8.9446C3.62656 9.87941 3.50024 10.9153 3.55077 11.9133C3.57603 12.4059 3.66446 12.9618 4.01817 13.227C4.34662 13.4797 4.7635 13.3786 5.12984 13.3155C5.71094 13.2144 6.44363 13.126 6.48153 13.8839C6.48153 13.8966 6.48153 13.9218 6.48153 13.9345C6.48153 14.0355 6.48153 14.1492 6.48153 14.2629C6.46889 14.6166 6.44363 14.983 6.36783 15.3367C6.30467 15.6525 6.27941 15.981 6.3931 16.2841C6.48153 16.5242 6.68365 16.5621 6.92367 16.5747C7.11316 16.5873 7.30264 16.5747 7.49213 16.5621C7.83321 16.5494 8.16166 16.5621 8.50274 16.5621C8.97015 16.5621 9.43755 16.5621 9.90496 16.5621C10.2966 16.5621 10.6882 16.5621 11.0798 16.5621C11.2945 16.5621 11.3956 16.5747 11.5346 16.3726C11.5977 16.2841 11.6356 16.1957 11.6483 16.1073C11.6356 16.1704 11.4714 16.2462 11.4209 16.2336C11.3324 16.2336 11.2693 16.1452 11.2187 16.0567C11.1682 15.9557 11.1177 15.8546 11.0924 15.7409C11.1303 15.842 11.143 15.9431 11.1556 16.0567C11.1556 16.0946 11.1556 16.1325 11.143 16.1578Z" fill="#8E8E8E"/>
<path opacity="0.3" d="M9.39971 10.5616C9.42497 11.1048 9.61446 11.6354 9.81658 12.1533C9.77868 12.0396 9.77868 11.8754 9.76605 11.7617C9.75342 11.6354 9.70289 11.5343 9.71552 11.408C9.75342 11.4459 9.80395 11.4838 9.85448 11.5091C9.89238 11.5343 9.94291 11.547 9.99344 11.5596C10.1198 11.5975 10.2587 11.6354 10.385 11.6354C10.4987 11.6354 10.5998 11.6354 10.7135 11.6354C11.004 11.648 11.2946 11.6606 11.5851 11.648C11.2441 11.7491 10.8777 11.7491 10.524 11.7491C10.8272 11.8249 11.143 11.8501 11.4588 11.8122C11.7999 11.7743 12.141 11.6985 12.4568 11.5596C12.7473 11.4206 13.0758 11.1932 13.24 10.9027C13.4421 10.5363 13.5306 10.0942 13.4674 9.68996C13.4042 9.24782 13.1642 8.81832 12.8231 8.52777C12.9495 8.5404 13.0632 8.59093 13.1516 8.67936C12.9874 8.45197 12.7473 8.24985 12.4694 8.23722C12.2926 8.22458 12.1283 8.30038 11.9768 8.40144C11.8125 8.5025 11.6862 8.62883 11.5725 8.75515C11.1177 9.22256 10.6756 9.68996 10.2208 10.1447C10.1577 10.2205 10.0819 10.2837 9.99344 10.3216C9.90501 10.3595 9.77868 10.3469 9.72815 10.2711C9.69025 10.2332 9.67762 10.17 9.67762 10.1195C9.66499 10.031 9.71552 9.95525 9.71552 9.87945C9.4376 9.94262 9.38707 10.3469 9.39971 10.5616Z" fill="#1E1004"/>
<path opacity="0.3" d="M15.097 6.80957C15.097 7.02432 15.097 7.21381 15.0717 7.41593C15.0338 7.66859 14.9706 7.90861 14.8822 8.13599C14.7938 8.41391 14.6674 8.66656 14.579 8.94448C14.4906 9.23503 14.4401 9.52558 14.4148 9.82876C14.3895 10.1193 14.339 10.4225 14.3516 10.713C14.3137 10.4604 14.2632 10.2204 14.2 9.96772C14.1116 9.63927 13.9853 9.32346 13.9727 8.98238C13.9727 8.83078 13.9853 8.66656 14.0611 8.5276C14.1748 8.33811 14.3895 8.23705 14.5411 8.09809C14.9201 7.78228 15.0338 7.27698 15.097 6.80957Z" fill="#1E1004"/>
<path d="M9.47543 12.6335C9.53859 12.6209 9.60175 12.6209 9.66492 12.6588C9.71545 12.6967 9.75334 12.7472 9.79124 12.8104C9.84177 12.8988 9.8923 12.9872 9.94283 13.0757C9.98073 13.1515 10.0186 13.2399 10.0313 13.3283C10.0313 13.4546 9.95547 13.581 9.86704 13.682C9.67755 13.8968 9.43753 14.061 9.15961 14.1115C8.8817 14.0736 8.64168 13.8968 8.45219 13.682C8.36376 13.581 8.28796 13.4673 8.28796 13.3283C8.28796 13.2146 8.35113 13.1262 8.41429 13.0378C8.47745 12.9367 8.54062 12.8357 8.61641 12.7346C8.66694 12.6462 8.75537 12.6209 8.85643 12.6588C8.91959 12.6841 8.97012 12.7093 9.03329 12.7346C9.12171 12.7725 9.21014 12.7599 9.28594 12.722C9.3491 12.6967 9.39963 12.6588 9.46279 12.6462C9.43753 12.6462 9.45016 12.6462 9.47543 12.6335Z" fill="#1E1004"/>
<path opacity="0.2" d="M8.66697 12.9617C8.60381 13.0122 8.56591 13.088 8.51538 13.1638C8.49011 13.2017 8.45221 13.2396 8.42695 13.2775C8.40168 13.3154 8.38905 13.366 8.40168 13.4165C8.41432 13.4418 8.42695 13.467 8.43958 13.4923C8.56591 13.6565 8.74276 13.7702 8.93225 13.8586C8.95752 13.8713 8.99542 13.8839 9.02068 13.8586C9.03331 13.846 9.03331 13.8334 9.04595 13.8081C9.05858 13.707 9.02068 13.6186 8.98278 13.5302C8.91962 13.3786 8.85646 13.227 8.80593 13.0628C8.79329 13.0375 8.79329 12.9996 8.78066 12.987C8.76803 12.9617 8.73013 12.9491 8.70487 12.9491C8.69223 12.9364 8.6796 12.9491 8.66697 12.9617Z" fill="black"/>
<path opacity="0.2" d="M9.60179 12.9617C9.66496 13.0122 9.70285 13.088 9.75338 13.1638C9.77865 13.2017 9.81655 13.2396 9.84181 13.2775C9.86708 13.3154 9.87971 13.366 9.86708 13.4165C9.85444 13.4418 9.84181 13.467 9.82918 13.4923C9.70285 13.6565 9.526 13.7702 9.33651 13.8586C9.31124 13.8713 9.27335 13.8839 9.24808 13.8586C9.23545 13.846 9.23545 13.8334 9.22281 13.8081C9.21018 13.707 9.24808 13.6186 9.28598 13.5302C9.34914 13.3786 9.4123 13.227 9.46283 13.0628C9.47547 13.0375 9.47547 12.9996 9.4881 12.987C9.50073 12.9617 9.53863 12.9491 9.56389 12.9491C9.58916 12.9364 9.60179 12.9491 9.60179 12.9617Z" fill="black"/>
<path opacity="0.4" d="M9.04588 4.85154C9.03325 4.85154 9.00799 4.30834 9.00799 4.25781C8.94482 4.4473 9.02062 4.73785 8.83113 4.86418C8.73007 4.92734 8.60374 4.92734 8.47742 4.92734C8.61638 4.9526 8.76797 4.97787 8.90692 4.9905C8.90692 5.62213 8.89429 6.25376 8.90692 6.89802C8.80586 6.96119 8.7048 6.99908 8.59111 6.99908C8.64164 6.96119 8.71744 6.98645 8.75533 7.02435C8.79323 7.06225 8.8185 7.12541 8.84376 7.18857C8.95745 7.54228 9.03325 7.90863 9.05852 8.27497C9.05852 7.9339 9.05852 7.58018 9.05852 7.2391C9.05852 7.18857 9.05852 7.15067 9.08378 7.11278C9.13431 7.04961 9.22274 7.04961 9.31117 7.07488C9.33643 7.02435 9.248 6.99908 9.19747 6.96119C9.13431 6.92329 9.12168 6.84749 9.10905 6.7717C9.03325 6.17797 9.00799 5.58423 9.03325 4.9905C9.17221 4.9526 9.3238 4.92734 9.46276 4.91471C9.31117 4.93997 9.17221 4.91471 9.04588 4.85154Z" fill="#1E1004"/>
<path d="M4.64983 9.53836C4.73825 9.26045 4.87721 8.98253 5.0667 8.76778C5.45831 8.313 5.84992 8.65408 6.2289 8.932C6.59524 9.19729 6.91106 9.5131 7.21424 9.84155C7.34057 9.98051 7.44163 10.1321 7.56795 10.2711C7.68165 10.3974 7.84587 10.549 8.02273 10.549C8.16168 10.549 8.31328 10.4605 8.33854 10.3216C8.35117 10.4858 8.35117 10.6374 8.35117 10.8016C8.35117 10.9658 8.31328 11.168 8.19958 11.2817C8.06062 11.4206 7.82061 11.4964 7.63112 11.5217C7.29004 11.5848 6.91106 11.5848 6.56998 11.5722C6.08994 11.5596 5.58464 11.4838 5.16776 11.2311C4.58666 10.8648 4.47297 10.17 4.64983 9.53836Z" fill="#1E1004"/>
<path opacity="0.2" d="M4.64974 9.53852C4.68764 9.38693 4.7508 9.2606 4.8266 9.13428C4.76343 9.62695 4.77607 10.0944 5.02872 10.5365C5.26874 10.9534 5.66035 11.2566 6.12775 11.345C6.59516 11.446 7.08783 11.446 7.56787 11.446C7.70683 11.446 7.85842 11.446 7.99738 11.4081C7.87105 11.446 7.75736 11.4966 7.6184 11.5218C7.27732 11.585 6.89834 11.585 6.55726 11.5724C6.07722 11.5597 5.57192 11.4839 5.15504 11.2313C4.58658 10.8649 4.47288 10.1701 4.64974 9.53852Z" fill="black"/>
<path d="M13.2652 9.53836C13.1768 9.26045 13.0378 8.98253 12.8483 8.76778C12.4567 8.313 12.0651 8.65408 11.6861 8.932C11.3198 9.19729 11.004 9.5131 10.7008 9.84155C10.5744 9.98051 10.4734 10.1321 10.3471 10.2711C10.2334 10.3974 10.0691 10.549 9.89229 10.549C9.75333 10.549 9.60174 10.4605 9.57648 10.3216C9.56384 10.4858 9.56384 10.6374 9.56384 10.8016C9.56384 10.9658 9.60174 11.168 9.71543 11.2817C9.85439 11.4206 10.0944 11.4964 10.2839 11.5217C10.625 11.5848 11.004 11.5848 11.345 11.5722C11.8251 11.5596 12.3304 11.4838 12.7473 11.2311C13.341 10.8648 13.4547 10.17 13.2652 9.53836Z" fill="#1E1004"/>
<path opacity="0.2" d="M13.3158 10.4229C13.3158 10.4607 13.1642 10.5744 13.1389 10.5997C13.0758 10.6502 13.0126 10.7134 12.9494 10.7639C12.8105 10.865 12.6589 10.9534 12.5073 11.0418C11.9894 11.3071 11.4083 11.3956 10.8398 11.3829C10.5871 11.3829 10.3219 11.345 10.0818 11.2692C9.89235 11.2061 9.6776 11.0166 9.57654 10.8397C9.57654 11.004 9.58917 11.1555 9.7155 11.2819C9.85446 11.4208 10.0945 11.4966 10.284 11.5219C10.625 11.585 11.004 11.5851 11.3451 11.5724C11.8251 11.5598 12.3304 11.484 12.7473 11.2313C12.8989 11.1303 13.0252 11.004 13.1263 10.865C13.1768 10.7892 13.2147 10.7134 13.24 10.6376C13.2779 10.5618 13.3284 10.5113 13.3158 10.4229Z" fill="black"/>
<path opacity="0.3" d="M12.6084 11.7109C12.141 11.7615 11.7115 12.052 11.2441 12.052C11.1178 12.052 10.9915 12.0268 10.8651 12.0141C10.7262 11.9889 10.5746 11.9636 10.4356 11.9383C10.3725 11.9257 10.3219 11.9131 10.2588 11.9383C9.9556 12.0268 10.4735 12.4563 10.5367 12.57C10.6125 12.6963 10.6883 12.8226 10.7767 12.9363C10.8651 13.05 10.9915 13.1384 11.1431 13.1511C11.3831 13.1763 11.5726 12.9868 11.7368 12.8226C11.9642 12.5826 12.2042 12.3426 12.4316 12.0899C12.5326 11.9889 12.6463 11.8499 12.6084 11.7109Z" fill="#1E1004"/>
</svg>
