<svg width="16" height="16" viewBox="0 0 16 16" fill="none" xmlns="http://www.w3.org/2000/svg">
<path fill-rule="evenodd" clip-rule="evenodd" d="M15.9925 0.669387L13.7025 14.3794C13.6891 14.4629 13.6569 14.5422 13.6084 14.6115C13.5599 14.6808 13.4963 14.7382 13.4225 14.7794C13.3475 14.8236 13.263 14.8494 13.1761 14.8546C13.0892 14.8598 13.0023 14.8443 12.9225 14.8094L8.88249 13.1594L6.72249 15.7894C6.62249 15.9294 6.47249 15.9994 6.28249 15.9994C6.18956 16 6.09794 15.9775 6.01589 15.9338C5.93384 15.8902 5.86394 15.8268 5.81249 15.7494C5.74726 15.6554 5.71237 15.5438 5.71249 15.4294V12.2994L13.4325 2.84939L3.88249 11.1094L0.362493 9.66939C0.257035 9.63529 0.16523 9.56839 0.100469 9.47844C0.0357085 9.3885 0.00138069 9.28021 0.00249305 9.16939C-0.00769501 9.06471 0.0134895 8.95937 0.0633507 8.86677C0.113212 8.77417 0.189495 8.6985 0.282493 8.64939L15.1525 0.0793872C15.2437 0.0242289 15.3489 -0.00324524 15.4555 0.000305392C15.562 0.00385602 15.6652 0.0382785 15.7525 0.0993872C15.9525 0.239387 16.0325 0.429387 16.0025 0.669387H15.9925Z" fill="#3D475F"/>
</svg>
