<svg width="46" height="46" viewBox="0 0 46 46" fill="none" xmlns="http://www.w3.org/2000/svg">
<path d="M20 1.73205C21.8564 0.660254 24.1436 0.660254 26 1.73205L39.9186 9.76795C41.775 10.8397 42.9186 12.8205 42.9186 14.9641V31.0359C42.9186 33.1795 41.775 35.1603 39.9186 36.2321L26 44.2679C24.1436 45.3397 21.8564 45.3397 20 44.2679L6.08142 36.2321C4.22501 35.1603 3.08142 33.1795 3.08142 31.0359V14.9641C3.08142 12.8205 4.22501 10.8397 6.08142 9.76795L20 1.73205Z" fill="#202338"/>
<g clip-path="url(#clip0_185_16328)">
<path fill-rule="evenodd" clip-rule="evenodd" d="M29.6606 16.8913L27.7522 28.3163C27.741 28.3859 27.7142 28.452 27.6738 28.5098C27.6334 28.5675 27.5804 28.6153 27.5189 28.6497C27.4564 28.6865 27.386 28.708 27.3136 28.7123C27.2411 28.7167 27.1687 28.7038 27.1022 28.6747L23.7356 27.2997L21.9356 29.4913C21.8522 29.608 21.7272 29.6663 21.5689 29.6663C21.4915 29.6668 21.4151 29.648 21.3467 29.6117C21.2784 29.5753 21.2201 29.5225 21.1772 29.458C21.1229 29.3797 21.0938 29.2866 21.0939 29.1913V26.583L27.5272 18.708L19.5689 25.5913L16.6356 24.3913C16.5477 24.3629 16.4712 24.3072 16.4172 24.2322C16.3633 24.1572 16.3346 24.067 16.3356 23.9747C16.3271 23.8874 16.3447 23.7996 16.3863 23.7225C16.4278 23.6453 16.4914 23.5822 16.5689 23.5413L28.9606 16.3997C29.0366 16.3537 29.1243 16.3308 29.213 16.3338C29.3018 16.3367 29.3878 16.3654 29.4606 16.4163C29.6272 16.533 29.6939 16.6913 29.6689 16.8913H29.6606Z" fill="#8997A9"/>
</g>
<defs>
<clipPath id="clip0_185_16328">
<rect width="14.1667" height="13.3333" fill="white" transform="translate(15.5 16.3335)"/>
</clipPath>
</defs>
</svg>
