<svg width="36" height="23" viewBox="0 0 36 23" fill="none" xmlns="http://www.w3.org/2000/svg">
<path d="M7.45539 4.82661C13.2903 -0.887516 22.7484 -0.887516 28.5909 4.82661L29.2929 5.51352C29.5873 5.80035 29.5873 6.26081 29.2929 6.54764L26.8925 8.90274C26.7491 9.04616 26.5075 9.04616 26.3641 8.90274L25.3979 7.95919C21.3293 3.97364 14.7245 3.97364 10.6559 7.95919L9.62178 8.97068C9.47836 9.1141 9.23681 9.1141 9.0934 8.97068L6.68546 6.61558C6.39107 6.32874 6.39107 5.86829 6.68546 5.58145L7.45539 4.82661ZM33.5577 9.68777L35.6939 11.7787C35.9883 12.0655 35.9883 12.526 35.6939 12.8128L26.0546 22.2558C25.7602 22.5427 25.2922 22.5427 24.9978 22.2558L18.1515 15.5529C18.076 15.4849 17.9627 15.4849 17.8873 15.5529L11.0484 22.2558C10.754 22.5427 10.286 22.5427 9.99165 22.2558L0.344814 12.8204C0.0504267 12.5335 0.0504267 12.0731 0.344814 11.7862L2.48101 9.69532C2.77539 9.40848 3.24339 9.40848 3.53778 9.69532L10.3842 16.3983C10.4597 16.4662 10.5729 16.4662 10.6484 16.3983L17.4872 9.69532C17.7816 9.40848 18.2496 9.40848 18.544 9.69532L25.3904 16.3983C25.4658 16.4662 25.5791 16.4662 25.6546 16.3983L32.5009 9.69532C32.7878 9.40093 33.2633 9.40093 33.5577 9.68777Z" fill="#3A99FB"/>
</svg>
