<svg width="28" height="28" viewBox="0 0 28 28" fill="none" xmlns="http://www.w3.org/2000/svg">
<path fill-rule="evenodd" clip-rule="evenodd" d="M14.0003 9.33333C10.1343 9.33333 7.00033 12.4673 7.00033 16.3333C7.00033 20.1993 10.1343 23.3333 14.0003 23.3333C17.8663 23.3333 21.0003 20.1993 21.0003 16.3333C21.0003 12.4673 17.8663 9.33333 14.0003 9.33333ZM4.66699 16.3333C4.66699 11.1787 8.84567 7 14.0003 7C19.155 7 23.3337 11.1787 23.3337 16.3333C23.3337 21.488 19.155 25.6667 14.0003 25.6667C8.84567 25.6667 4.66699 21.488 4.66699 16.3333Z" fill="white"/>
<path d="M12.833 12.8332C12.833 12.1888 13.3553 11.6665 13.9997 11.6665V11.6665C14.644 11.6665 15.1663 12.1888 15.1663 12.8332V16.3332C15.1663 16.9775 14.644 17.4998 13.9997 17.4998V17.4998C13.3553 17.4998 12.833 16.9775 12.833 16.3332V12.8332Z" fill="white"/>
<path fill-rule="evenodd" clip-rule="evenodd" d="M12.8337 2.3335C12.1893 2.3335 11.667 2.85583 11.667 3.50016C11.667 4.1445 12.1893 4.66683 12.8337 4.66683H15.167C15.8113 4.66683 16.3337 4.1445 16.3337 3.50016C16.3337 2.85583 15.8113 2.3335 15.167 2.3335H12.8337ZM21.7003 4.6085C21.1849 4.2219 20.4536 4.32636 20.067 4.84183C19.6804 5.3573 19.7849 6.08856 20.3003 6.47516L21.467 7.35016C21.9825 7.73676 22.7137 7.6323 23.1003 7.11683C23.4869 6.60136 23.3825 5.8701 22.867 5.4835L21.7003 4.6085Z" fill="white"/>
</svg>
