<svg width="36" height="26" viewBox="0 0 36 26" fill="none" xmlns="http://www.w3.org/2000/svg">
<path fill-rule="evenodd" clip-rule="evenodd" d="M33.6071 2.77399C34.1565 3.32339 34.5524 4.00713 34.7554 4.75713C35.924 9.46099 35.6539 16.89 34.7781 21.7754C34.5751 22.5254 34.1792 23.2092 33.6298 23.7586C33.0804 24.308 32.3967 24.7039 31.6467 24.9068C28.9011 25.6556 17.8505 25.6556 17.8505 25.6556C17.8505 25.6556 6.79996 25.6556 4.05434 24.9068C3.30435 24.7039 2.6206 24.308 2.0712 23.7586C1.5218 23.2092 1.12592 22.5254 0.922971 21.7754C-0.252427 17.092 0.0697865 9.6584 0.90028 4.77982C1.10323 4.02982 1.49911 3.34608 2.04851 2.79668C2.59791 2.24728 3.28165 1.8514 4.03165 1.64845C6.77727 0.899644 17.8278 0.876953 17.8278 0.876953C17.8278 0.876953 28.8784 0.876953 31.624 1.62576C32.374 1.8287 33.0577 2.22459 33.6071 2.77399ZM23.4782 13.2667L14.311 18.5765V7.95703L23.4782 13.2667Z" fill="#FF2727"/>
</svg>
