<svg width="46" height="46" viewBox="0 0 46 46" fill="none" xmlns="http://www.w3.org/2000/svg">
<path d="M20 1.73205C21.8564 0.660254 24.1436 0.660254 26 1.73205L39.9186 9.76795C41.775 10.8397 42.9186 12.8205 42.9186 14.9641V31.0359C42.9186 33.1795 41.775 35.1603 39.9186 36.2321L26 44.2679C24.1436 45.3397 21.8564 45.3397 20 44.2679L6.08142 36.2321C4.22501 35.1603 3.08142 33.1795 3.08142 31.0359V14.9641C3.08142 12.8205 4.22501 10.8397 6.08142 9.76795L20 1.73205Z" fill="#202338"/>
<g clip-path="url(#clip0_185_16334)">
<path fill-rule="evenodd" clip-rule="evenodd" d="M30.3675 18.0101C30.6117 18.2543 30.7876 18.5582 30.8778 18.8915C31.3972 20.9821 31.2772 24.2839 30.8879 26.4552C30.7977 26.7885 30.6218 27.0924 30.3776 27.3366C30.1334 27.5808 29.8295 27.7567 29.4962 27.8469C28.2759 28.1797 23.3646 28.1797 23.3646 28.1797C23.3646 28.1797 18.4532 28.1797 17.2329 27.8469C16.8996 27.7567 16.5957 27.5808 16.3515 27.3366C16.1073 27.0924 15.9314 26.7885 15.8412 26.4552C15.3188 24.3737 15.462 21.0699 15.8311 18.9016C15.9213 18.5683 16.0973 18.2644 16.3414 18.0202C16.5856 17.776 16.8895 17.6001 17.2228 17.5099C18.4431 17.1771 23.3545 17.167 23.3545 17.167C23.3545 17.167 28.2658 17.167 29.4861 17.4998C29.8194 17.59 30.1233 17.7659 30.3675 18.0101ZM25.8658 22.6734L21.7915 25.0333V20.3136L25.8658 22.6734Z" fill="#8997A9"/>
</g>
<defs>
<clipPath id="clip0_185_16334">
<rect width="16.6667" height="11.6667" fill="white" transform="translate(14.6665 17.1665)"/>
</clipPath>
</defs>
</svg>
