<svg width="105" height="94" viewBox="0 0 105 94" fill="none" xmlns="http://www.w3.org/2000/svg">
<path d="M70.2908 31.7438C70.2908 31.7438 70.3005 31.7911 70.333 31.8781C70.554 32.1385 70.7693 32.4199 70.945 32.7241C72.4418 35.3167 71.5473 38.655 68.9547 40.1519C66.3621 41.6487 63.0314 40.7675 61.5269 38.1616C60.6105 36.5743 60.5737 34.7084 61.3019 33.1592C61.3111 33.0834 61.309 33.0493 61.309 33.0493C61.309 33.0493 60.3193 29.8993 51.6888 25.4288C43.0528 20.9792 38.751 22.8455 38.751 22.8455C38.751 22.8455 35.0633 25.5919 34.6328 35.2937C34.1892 45.0032 36.462 47.4124 36.462 47.4124C36.462 47.4124 36.5037 47.4236 36.5739 47.4536C38.2664 47.6052 39.8772 48.5623 40.7937 50.1496C42.2905 52.7422 41.4092 56.0729 38.8034 57.5774C36.2108 59.0742 32.8801 58.193 31.3756 55.5871C31.2 55.2829 31.0508 54.9634 30.9489 54.6342C30.8766 54.5701 30.8537 54.5304 30.8537 54.5304C30.8537 54.5304 19.3371 52.026 9.16012 59.7536L39.3413 84.7802C39.3413 84.7802 48.0559 81.7595 66.5878 71.0601C84.4186 60.7655 92.2649 54.2248 92.2649 54.2248L85.6818 15.5737C73.8878 20.5312 70.2908 31.7438 70.2908 31.7438Z" fill="url(#paint0_linear_179_23214)"/>
<path d="M90.5731 52.9451C90.5731 52.9451 84.052 60.1316 66.2212 70.4262C47.6893 81.1256 39.1941 82.7851 39.1941 82.7851L12.8666 59.9427C12.5644 60.1525 9.46787 59.524 9.16009 59.7546L39.3413 84.7813C39.3413 84.7813 48.0559 81.7605 66.5877 71.0611C84.4185 60.7665 92.2649 54.2258 92.2649 54.2258L85.6818 15.5748C85.3282 15.7261 84.5327 18.3194 84.1867 18.4839L90.5731 52.9451Z" fill="url(#paint1_linear_179_23214)"/>
<path d="M40.3513 59.6508C43.8699 57.6193 45.0719 53.1334 43.0404 49.6149C41.5054 46.9561 38.5649 45.6203 35.7002 46.0044C36.1045 47.0408 36.4415 47.4106 36.4415 47.4106C36.4415 47.4106 36.4832 47.4218 36.5535 47.4518C38.2459 47.6034 39.8567 48.5606 40.7732 50.1479C42.27 52.7405 41.3888 56.0712 38.7829 57.5757C36.1903 59.0725 32.8596 58.1912 31.3551 55.5854C31.1795 55.2812 31.0303 54.9617 30.9284 54.6325C30.8561 54.5684 30.8332 54.5287 30.8332 54.5287C30.8332 54.5287 30.306 54.4098 29.3906 54.321C29.514 55.2374 29.8135 56.1227 30.3023 56.9693C32.3469 60.4802 36.846 61.6745 40.3513 59.6508Z" fill="url(#paint2_linear_179_23214)"/>
<path d="M34.5804 35.3283C34.1711 44.242 36.0741 46.9881 36.3846 47.3732C36.9819 47.0636 37.8326 46.6431 38.5815 46.3518C38.0704 45.5886 36.5016 42.5966 36.8766 34.4788C37.1161 29.1201 38.4314 25.8386 39.3595 24.0858L38.6722 22.8954C38.6722 22.8954 35.0241 25.6189 34.5804 35.3283Z" fill="url(#paint3_linear_179_23214)"/>
<path d="M30.8465 54.5207C30.8465 54.5207 19.3375 52.0296 9.16052 59.7571L12.8283 59.756C21.7785 55.1882 30.458 57.0554 30.458 57.0554C30.5758 56.282 30.7577 55.4362 30.9472 54.6037C30.8902 54.566 30.8465 54.5207 30.8465 54.5207Z" fill="url(#paint4_linear_179_23214)"/>
<path d="M35.2857 29.8596C35.269 29.9222 35.2786 29.9695 35.2751 30.0244C35.2436 30.1837 35.2121 30.343 35.1882 30.5155C35.1562 30.5516 35.1638 30.5649 35.1638 30.5649C35.1638 30.5649 36.2318 27.0382 37.0136 26.0401C37.7954 25.042 37.6192 26.3254 37.2033 27.3768C36.7874 28.4282 36.2733 35.9385 36.6424 39.6936C36.8287 41.5438 37.2888 43.1653 37.7298 44.3569C37.1914 42.569 36.6851 39.4926 36.9089 34.4428C36.9447 33.5579 37.0188 32.7391 37.1157 31.96C37.1791 31.3061 37.2746 30.6161 37.3965 29.9108C37.5239 29.1846 37.6499 28.5475 37.8385 27.9272C38.3046 26.2295 38.9657 24.9307 39.3598 24.0859L38.6724 22.8954C38.6724 22.8954 36.4783 24.5326 35.2857 29.8596Z" fill="#FFFCDE"/>
<path d="M42.387 54.684C41.9073 55.0139 41.4015 55.0237 41.0774 54.9816C40.8018 55.6345 40.399 56.2198 39.8821 56.7299C40.0964 56.7649 40.3182 56.8132 40.4872 56.892C41.0149 57.134 40.9456 58.1441 39.5324 59.4538C39.04 59.9145 38.2819 60.2816 37.5121 60.5673C38.4911 60.4607 39.4578 60.1495 40.3573 59.6301C43.5848 57.7667 44.8481 53.8451 43.4767 50.4923C44.0447 52.5453 43.1425 54.1596 42.387 54.684Z" fill="#FFFCDE"/>
<path d="M30.9824 54.7253C30.9824 54.7253 30.4885 56.9858 30.6545 57.2427C30.8205 57.4996 31.9236 58.891 31.9236 58.891C31.9236 58.891 31.3439 58.4673 30.8124 57.8217C30.281 57.1762 28.6912 56.6831 26.6054 56.7057C24.5197 56.7282 19.5098 57.3984 19.5098 57.3984C19.5098 57.3984 23.4083 56.4528 25.5963 56.4241C27.7843 56.3954 29.45 56.8976 30.0186 56.1107C30.5949 55.3371 27.8844 54.1859 27.8844 54.1859C27.8844 54.1859 29.5381 54.1483 30.1793 54.3424C30.847 54.5213 31.0745 54.5487 30.9824 54.7253Z" fill="#FFFCDE"/>
<path d="M16.8903 57.6583C13.9286 58.8215 13.2164 59.268 12.1178 59.3202C11.0192 59.3725 11.8392 58.4405 13.3716 57.5205C14.8907 56.6082 17.3903 55.5001 17.3903 55.5001C17.3903 55.5001 13.1153 56.5574 9.16053 59.7578L12.867 59.9459C12.867 59.9459 17.3717 57.6979 20.3269 57.2262C23.2689 56.7622 23.4785 56.606 23.4785 56.606C23.4785 56.606 19.8651 56.4875 16.8903 57.6583Z" fill="#FFFCDE"/>
<path d="M69.9817 42.5432C66.4631 44.5746 61.9772 43.3726 59.9458 39.8541C58.4108 37.1953 58.7242 33.9808 60.4892 31.692C61.1846 32.5603 61.3363 33.0371 61.3363 33.0371C61.3363 33.0371 61.3252 33.0788 61.316 33.1546C60.6011 34.6962 60.6246 36.5697 61.541 38.157C63.0379 40.7497 66.363 41.6518 68.9688 40.1473C71.5614 38.6505 72.4635 35.3254 70.9591 32.7195C70.7834 32.4153 70.5813 32.1263 70.3472 31.8735C70.3278 31.7789 70.3049 31.7392 70.3049 31.7392C70.3049 31.7392 70.4655 31.2232 70.8464 30.386C71.5783 30.9511 72.1952 31.6531 72.684 32.4997C74.7022 36.0258 73.5002 40.5117 69.9817 42.5432Z" fill="url(#paint5_linear_179_23214)"/>
<path d="M51.6442 25.4749C59.5683 29.5772 61.0744 32.5525 61.2527 33.0139C60.6859 33.3764 59.9361 33.8799 59.3093 34.3828C58.904 33.5586 56.9517 30.7881 49.734 27.0539C44.9867 24.5743 41.8708 23.8512 39.3597 24.084L38.6724 22.8936C38.6724 22.8936 43.0138 21.0043 51.6442 25.4749Z" fill="url(#paint6_linear_179_23214)"/>
<path d="M70.2913 31.746C70.2913 31.746 73.8883 20.5334 85.6691 15.5837L83.8342 18.7595C75.4033 24.2267 72.6806 32.677 72.6806 32.677C71.9519 32.3923 71.1285 32.1269 70.3127 31.8748C70.3218 31.799 70.2913 31.746 70.2913 31.746Z" fill="url(#paint7_linear_179_23214)"/>
<path d="M64.6618 41.8221C65.1873 41.5716 65.4487 41.1385 65.5743 40.8367C66.2776 40.9245 66.9859 40.8683 67.686 40.6758C67.6092 40.8788 67.5401 41.0951 67.5239 41.2808C67.4696 41.8589 68.3791 42.3038 70.2199 41.7349C70.8651 41.5388 71.562 41.0658 72.1944 40.542C71.6125 41.3365 70.8596 42.0181 69.9601 42.5374C66.7326 44.4008 62.7048 43.534 60.4868 40.6699C61.994 42.1807 63.8432 42.2066 64.6618 41.8221Z" fill="#FFFCDE"/>
<path d="M85.6692 15.5845C80.9202 17.4092 77.8671 20.5828 77.8671 20.5828C77.8671 20.5828 80.0765 18.9721 81.6262 18.1127C83.1758 17.2533 84.0566 17.2209 83.4545 18.133C82.8599 19.0583 82.1171 19.4518 79.77 21.6182C77.0398 24.1293 74.9312 27.5336 74.9312 27.5336C74.9312 27.5336 74.6545 27.9403 74.5437 28.1454C73.4248 30.0259 72.4418 31.7752 71.9105 31.5881C71.0016 31.2663 71.4822 29.0134 71.4822 29.0134C71.4822 29.0134 70.6227 30.4268 70.4703 31.0792C70.3046 31.7392 70.2146 31.9499 70.4059 31.9453C70.4059 31.9453 72.6105 32.6478 72.75 32.92C72.8895 33.1922 73.5429 34.8432 73.5429 34.8432C73.5429 34.8432 73.4658 34.1293 73.1725 33.3463C72.8791 32.5632 73.247 30.9399 74.3094 29.1448C75.3042 27.477 78.1343 24.0088 78.53 23.5334C80.4599 21.2552 83.9844 18.8676 83.9844 18.8676L85.6692 15.5845Z" fill="#FFFCDE"/>
<path d="M39.2211 82.7706L39.3418 84.782C39.3418 84.782 48.0564 81.7612 66.5882 71.0618C84.4191 60.7672 92.2654 54.2265 92.2654 54.2265L92.269 54.1716L90.5868 52.9381C90.5868 52.9381 84.0657 60.1247 66.2349 70.4193C48.2983 80.775 39.7624 82.6696 39.2211 82.7706Z" fill="#572600"/>
<path d="M90.5736 52.9445C90.5736 52.9445 84.5463 19.5635 84.6391 18.7162C84.7396 17.8822 85.669 15.5819 85.669 15.5819L83.9787 18.8859L90.5736 52.9445Z" fill="#E38250"/>
<path d="M38.9326 82.7591C38.9326 82.7591 13.0374 60.8487 12.2572 60.5055C11.4847 60.1755 9.16016 59.7539 9.16016 59.7539L12.8667 59.942L38.9326 82.7591Z" fill="#FFFCDE"/>
<defs>
<linearGradient id="paint0_linear_179_23214" x1="19.2028" y1="66.2799" x2="85.4435" y2="28.0358" gradientUnits="userSpaceOnUse">
<stop stop-color="#864725"/>
<stop offset="0.4303" stop-color="#E38250"/>
<stop offset="0.7131" stop-color="#BD6E50"/>
<stop offset="1" stop-color="#572600"/>
</linearGradient>
<linearGradient id="paint1_linear_179_23214" x1="51.1959" y1="44.2101" x2="64.8603" y2="67.8776" gradientUnits="userSpaceOnUse">
<stop stop-color="#E38250"/>
<stop offset="1" stop-color="#BD6E50"/>
</linearGradient>
<linearGradient id="paint2_linear_179_23214" x1="39.5476" y1="62.3864" x2="32.8627" y2="41.1473" gradientUnits="userSpaceOnUse">
<stop stop-color="#572600"/>
<stop offset="0.4303" stop-color="#BD6E50"/>
<stop offset="1" stop-color="#E38250"/>
</linearGradient>
<linearGradient id="paint3_linear_179_23214" x1="31.404" y1="38.7914" x2="43.7348" y2="31.6722" gradientUnits="userSpaceOnUse">
<stop stop-color="#572600"/>
<stop offset="0.4303" stop-color="#BD6E50"/>
<stop offset="1" stop-color="#E38250"/>
</linearGradient>
<linearGradient id="paint4_linear_179_23214" x1="11.1922" y1="63.2699" x2="29.7526" y2="52.5541" gradientUnits="userSpaceOnUse">
<stop stop-color="#E38250"/>
<stop offset="0.5697" stop-color="#BD6E50"/>
<stop offset="1" stop-color="#572600"/>
</linearGradient>
<linearGradient id="paint5_linear_179_23214" x1="72.7602" y1="43.2105" x2="57.7092" y2="26.8017" gradientUnits="userSpaceOnUse">
<stop stop-color="#E38250"/>
<stop offset="0.5697" stop-color="#BD6E50"/>
<stop offset="1" stop-color="#572600"/>
</linearGradient>
<linearGradient id="paint6_linear_179_23214" x1="56.3105" y1="24.4099" x2="43.735" y2="31.6704" gradientUnits="userSpaceOnUse">
<stop stop-color="#572600"/>
<stop offset="0.4303" stop-color="#BD6E50"/>
<stop offset="1" stop-color="#E38250"/>
</linearGradient>
<linearGradient id="paint7_linear_179_23214" x1="69.1428" y1="29.8109" x2="87.703" y2="19.0951" gradientUnits="userSpaceOnUse">
<stop stop-color="#E38250"/>
<stop offset="0.5697" stop-color="#BD6E50"/>
<stop offset="1" stop-color="#572600"/>
</linearGradient>
</defs>
</svg>
