<svg width="66" height="41" viewBox="0 0 66 41" fill="none" xmlns="http://www.w3.org/2000/svg">
<path d="M49.4636 17.1176C49.4636 17.1176 49.4525 17.151 49.4414 17.2178C49.4859 17.4628 49.5193 17.719 49.5193 17.9751C49.5193 20.158 47.7374 21.9399 45.5545 21.9399C43.3717 21.9399 41.5898 20.1691 41.5898 17.9751C41.5898 16.6387 42.2469 15.447 43.2715 14.7343C43.3049 14.6897 43.316 14.6674 43.316 14.6674C43.316 14.6674 43.8394 12.3175 40.0195 6.34809C36.1883 0.389795 32.7915 0 32.7915 0C32.7915 0 29.4616 0.389795 25.6527 6.35923C21.8327 12.3287 22.3896 14.6786 22.3896 14.6786C22.3896 14.6786 22.4118 14.7008 22.4453 14.7454C23.4587 15.4582 24.1269 16.6498 24.1269 17.9863C24.1269 20.1691 22.3562 21.951 20.1622 21.951C17.9793 21.951 16.1974 20.1802 16.1974 17.9863C16.1974 17.7301 16.2197 17.474 16.2754 17.2289C16.2531 17.1621 16.2531 17.1287 16.2531 17.1287C16.2531 17.1287 9.89386 11.3486 0.650146 12.518L10.5844 39.3247C10.5844 39.3247 17.1886 40.5944 32.7915 40.5944C47.8042 40.5944 55.1435 39.3247 55.1435 39.3247L65.0777 12.518C55.8229 11.3486 49.4636 17.1176 49.4636 17.1176Z" fill="url(#paint0_linear_1162_1690)"/>
<path d="M54.5421 37.8994C54.5421 37.8994 47.8042 40.06 32.7915 40.06C17.1886 40.06 11.2192 38.0108 11.2192 38.0108L2.9221 13.9883C2.65481 14.0105 0.928572 12.4848 0.650146 12.5182L10.5844 39.325C10.5844 39.325 17.1886 40.5946 32.7915 40.5946C47.8042 40.5946 55.1435 39.325 55.1435 39.325L65.0777 12.5182C64.7993 12.4848 63.3515 13.8324 63.073 13.8101L54.5421 37.8994Z" fill="url(#paint1_linear_1162_1690)"/>
<path d="M20.3849 23.8226C23.3473 23.8226 25.7418 21.4282 25.7418 18.4657C25.7418 16.2272 24.3719 14.3116 22.423 13.5098C22.3004 14.3116 22.3784 14.668 22.3784 14.668C22.3784 14.668 22.4007 14.6903 22.4341 14.7348C23.4476 15.4476 24.1158 16.6393 24.1158 17.9757C24.1158 20.1586 22.345 21.9405 20.151 21.9405C17.9682 21.9405 16.1862 20.1697 16.1862 17.9757C16.1862 17.7196 16.2085 17.4634 16.2642 17.2184C16.2419 17.1516 16.2419 17.1182 16.2419 17.1182C16.2419 17.1182 15.9524 16.8509 15.4066 16.4611C15.1505 17.0847 15.0168 17.753 15.0168 18.4657C15.028 21.4282 17.4336 23.8226 20.3849 23.8226Z" fill="url(#paint2_linear_1162_1690)"/>
<path d="M25.6081 6.3602C22.0999 11.8396 22.3004 14.2675 22.3561 14.6239C22.8461 14.6461 23.5366 14.6907 24.1157 14.7798C24.0712 14.1116 24.1714 11.6503 27.3677 6.6609C29.4726 3.36435 31.4995 1.77176 32.7246 1.00331V0.000976562C32.7246 0.000976562 29.4281 0.390772 25.6081 6.3602Z" fill="url(#paint3_linear_1162_1690)"/>
<path d="M16.2531 17.1184C16.2531 17.1184 9.89386 11.3494 0.650146 12.5188L2.96664 13.8552C10.2837 14.2339 15.0837 18.5773 15.0837 18.5773C15.4401 18.1318 15.8633 17.6641 16.2865 17.2074C16.2642 17.1629 16.2531 17.1184 16.2531 17.1184Z" fill="url(#paint4_linear_1162_1690)"/>
<path d="M28.0472 3.16388C28.0138 3.1973 28.0027 3.23071 27.9804 3.26412C27.9024 3.35321 27.8245 3.44231 27.7465 3.54254C27.7131 3.55368 27.7131 3.56482 27.7131 3.56482C27.7131 3.56482 29.6732 1.72721 30.5308 1.38196C31.3883 1.03672 30.8092 1.7829 30.1632 2.2952C29.5173 2.8075 26.4546 7.36253 25.3186 9.86836C24.7618 11.1046 24.4611 12.2962 24.3052 13.2095C24.617 11.8842 25.4189 9.75699 27.4013 6.64977C27.7465 6.10405 28.0918 5.61403 28.437 5.15741C28.7154 4.76761 29.0273 4.36668 29.3614 3.96575C29.7066 3.55368 30.0185 3.1973 30.3637 2.87432C31.2769 1.97223 32.1679 1.3931 32.7247 1.00331V0.000976562C32.7247 0.000976562 30.7424 0.234854 28.0472 3.16388Z" fill="#FFFCDE"/>
<path d="M23.4811 21.4284C23.0579 21.4618 22.7349 21.2836 22.5456 21.1388C22.1335 21.4507 21.6657 21.6734 21.1534 21.807C21.2759 21.9073 21.3984 22.0186 21.4764 22.13C21.7214 22.4753 21.3093 23.0878 19.9395 23.3996C19.4606 23.511 18.8481 23.4665 18.2578 23.3662C18.9149 23.6558 19.6388 23.8117 20.3961 23.8117C23.1135 23.8117 25.3409 21.7959 25.6973 19.1787C25.3075 20.6822 24.1493 21.3727 23.4811 21.4284Z" fill="#FFFCDE"/>
<path d="M16.2643 17.2974C16.2643 17.2974 15.1283 18.5448 15.1394 18.7675C15.1506 18.9902 15.3399 20.271 15.3399 20.271C15.3399 20.271 15.1283 19.7921 15.0281 19.1907C14.9278 18.5893 14.1037 17.6984 12.7784 16.9522C11.4531 16.206 8.04517 14.8027 8.04517 14.8027C8.04517 14.8027 10.8517 15.6269 12.2438 16.4065C13.6359 17.1861 14.5046 18.1104 15.1506 17.8209C15.7965 17.5424 14.5046 15.8273 14.5046 15.8273C14.5046 15.8273 15.5626 16.4065 15.8968 16.7628C16.2531 17.1192 16.3868 17.2195 16.2643 17.2974Z" fill="#FFFCDE"/>
<path d="M6.29661 14.0113C4.00238 13.666 3.38985 13.6883 2.67708 13.3208C1.96431 12.9532 2.82186 12.6637 4.12489 12.6414C5.41678 12.6191 7.39917 12.8307 7.39917 12.8307C7.39917 12.8307 4.31422 11.9398 0.650146 12.5189L2.92209 13.989C2.92209 13.989 6.58617 14.2117 8.62424 14.9913C10.6512 15.7709 10.8405 15.7486 10.8405 15.7486C10.8405 15.7486 8.60197 14.3565 6.29661 14.0113Z" fill="#FFFCDE"/>
<path d="M45.3318 23.8236C42.3693 23.8236 39.9749 21.4292 39.9749 18.4667C39.9749 16.2282 41.3447 14.3126 43.2937 13.5107C43.4162 14.3126 43.3382 14.669 43.3382 14.669C43.3382 14.669 43.316 14.6913 43.2825 14.7358C42.2691 15.4486 41.6009 16.6402 41.6009 17.9767C41.6009 20.1595 43.3716 21.9415 45.5656 21.9415C47.7485 21.9415 49.5304 20.1707 49.5304 17.9767C49.5304 17.7205 49.5081 17.4644 49.4524 17.2194C49.4747 17.1525 49.4747 17.1191 49.4747 17.1191C49.4747 17.1191 49.7643 16.8518 50.31 16.462C50.5661 17.0857 50.6998 17.7539 50.6998 18.4667C50.6886 21.4292 48.2942 23.8236 45.3318 23.8236Z" fill="url(#paint5_linear_1162_1690)"/>
<path d="M39.9748 6.3602C43.483 11.8396 43.3493 14.2675 43.2936 14.6239C42.8036 14.6461 42.1465 14.6907 41.5674 14.7798C41.6119 14.1116 41.3892 11.6503 38.1929 6.6609C36.0991 3.36435 34.3952 1.77176 32.7246 1.00331V0.000976562C32.7246 0.000976562 36.1548 0.390772 39.9748 6.3602Z" fill="url(#paint6_linear_1162_1690)"/>
<path d="M49.4638 17.1184C49.4638 17.1184 55.8231 11.3494 65.0668 12.5188L62.7503 13.8552C55.4333 14.2339 50.6332 18.5773 50.6332 18.5773C50.2768 18.1318 49.8536 17.6641 49.4304 17.2074C49.4638 17.1629 49.4638 17.1184 49.4638 17.1184Z" fill="url(#paint7_linear_1162_1690)"/>
<path d="M42.2355 21.4284C42.6588 21.4618 42.9817 21.2836 43.1711 21.1388C43.5831 21.4507 44.0509 21.6734 44.5632 21.807C44.4407 21.9073 44.3182 22.0186 44.2402 22.13C43.9952 22.4753 44.4073 23.0878 45.7771 23.3996C46.256 23.511 46.8685 23.4665 47.4588 23.3662C46.8017 23.6558 46.0778 23.8117 45.3205 23.8117C42.6031 23.8117 40.3757 21.7959 40.0193 19.1787C40.4202 20.6822 41.5785 21.3727 42.2355 21.4284Z" fill="#FFFCDE"/>
<path d="M65.0665 12.5189C61.4024 11.9398 58.3174 12.8307 58.3174 12.8307C58.3174 12.8307 60.2998 12.6191 61.5917 12.6414C62.8836 12.6637 63.4516 12.9644 62.7388 13.3208C62.0261 13.6883 61.4135 13.666 59.1416 14.1783C56.5021 14.7686 53.9295 16.1496 53.9295 16.1496C53.9295 16.1496 53.6065 16.3055 53.4617 16.3946C52.0696 17.1742 50.8111 17.9203 50.5438 17.6085C50.0872 17.0739 51.212 15.8266 51.212 15.8266C51.212 15.8266 50.154 16.4057 49.8199 16.7621C49.4747 17.1185 49.341 17.2187 49.4635 17.2855C49.4635 17.2855 50.5995 18.5329 50.5884 18.7556C50.5772 18.9784 50.3879 20.2591 50.3879 20.2591C50.3879 20.2591 50.5995 19.7802 50.6997 19.1788C50.8 18.5774 51.6241 17.6865 52.9494 16.9403C54.1856 16.2498 57.2371 15.0915 57.6603 14.9356C59.7096 14.2006 62.8056 13.9778 62.8056 13.9778L65.0665 12.5189Z" fill="#FFFCDE"/>
<path d="M11.2416 38.0108L10.5845 39.325C10.5845 39.325 17.1887 40.5946 32.7917 40.5946C47.8043 40.5946 55.1436 39.325 55.1436 39.325L55.1659 39.2915L54.5534 37.8994C54.5534 37.8994 47.8155 40.06 32.8028 40.06C17.701 40.06 11.6202 38.1444 11.2416 38.0108Z" fill="#572600"/>
<path d="M54.5422 37.8998C54.5422 37.8998 62.9061 14.6234 63.2736 14.1223C63.6412 13.6323 65.0667 12.5186 65.0667 12.5186L62.7948 13.9886L54.5422 37.8998Z" fill="#E38250"/>
<path d="M11.0632 37.8998C11.0632 37.8998 2.69935 14.6234 2.33183 14.1223C1.96431 13.6323 0.650146 12.5186 0.650146 12.5186L2.92209 13.9886L11.0632 37.8998Z" fill="#FFFCDE"/>
<defs>
<linearGradient id="paint0_linear_1162_1690" x1="4.61238" y1="20.3004" x2="60.3839" y2="20.3004" gradientUnits="userSpaceOnUse">
<stop stop-color="#864725"/>
<stop offset="0.4303" stop-color="#E38250"/>
<stop offset="0.7131" stop-color="#BD6E50"/>
<stop offset="1" stop-color="#572600"/>
</linearGradient>
<linearGradient id="paint1_linear_1162_1690" x1="32.8614" y1="18.0276" x2="32.8614" y2="37.9545" gradientUnits="userSpaceOnUse">
<stop stop-color="#E38250"/>
<stop offset="1" stop-color="#BD6E50"/>
</linearGradient>
<linearGradient id="paint2_linear_1162_1690" x1="18.88" y1="25.2571" x2="22.402" y2="9.40818" gradientUnits="userSpaceOnUse">
<stop stop-color="#572600"/>
<stop offset="0.4303" stop-color="#BD6E50"/>
<stop offset="1" stop-color="#E38250"/>
</linearGradient>
<linearGradient id="paint3_linear_1162_1690" x1="22.3397" y1="7.38892" x2="32.7217" y2="7.38892" gradientUnits="userSpaceOnUse">
<stop stop-color="#572600"/>
<stop offset="0.4303" stop-color="#BD6E50"/>
<stop offset="1" stop-color="#E38250"/>
</linearGradient>
<linearGradient id="paint4_linear_1162_1690" x1="0.65243" y1="15.4777" x2="16.2794" y2="15.4777" gradientUnits="userSpaceOnUse">
<stop stop-color="#E38250"/>
<stop offset="0.5697" stop-color="#BD6E50"/>
<stop offset="1" stop-color="#572600"/>
</linearGradient>
<linearGradient id="paint5_linear_1162_1690" x1="46.843" y1="25.258" x2="43.3211" y2="9.40922" gradientUnits="userSpaceOnUse">
<stop stop-color="#E38250"/>
<stop offset="0.5697" stop-color="#BD6E50"/>
<stop offset="1" stop-color="#572600"/>
</linearGradient>
<linearGradient id="paint6_linear_1162_1690" x1="43.3097" y1="7.38892" x2="32.7217" y2="7.38892" gradientUnits="userSpaceOnUse">
<stop stop-color="#572600"/>
<stop offset="0.4303" stop-color="#BD6E50"/>
<stop offset="1" stop-color="#E38250"/>
</linearGradient>
<linearGradient id="paint7_linear_1162_1690" x1="49.4441" y1="15.4777" x2="65.0709" y2="15.4777" gradientUnits="userSpaceOnUse">
<stop stop-color="#E38250"/>
<stop offset="0.5697" stop-color="#BD6E50"/>
<stop offset="1" stop-color="#572600"/>
</linearGradient>
</defs>
</svg>
