<svg width="65" height="41" viewBox="0 0 65 41" fill="none" xmlns="http://www.w3.org/2000/svg">
<path d="M49.3525 17.1176C49.3525 17.1176 49.3414 17.151 49.3303 17.2178C49.3748 17.4628 49.4082 17.719 49.4082 17.9751C49.4082 20.158 47.6263 21.9399 45.4435 21.9399C43.2606 21.9399 41.4787 20.1691 41.4787 17.9751C41.4787 16.6387 42.1358 15.447 43.1604 14.7343C43.1938 14.6897 43.2049 14.6674 43.2049 14.6674C43.2049 14.6674 43.7284 12.3175 39.9084 6.34809C36.0772 0.389795 32.6805 0 32.6805 0C32.6805 0 29.3505 0.389795 25.5416 6.35923C21.7216 12.3287 22.2785 14.6786 22.2785 14.6786C22.2785 14.6786 22.3008 14.7008 22.3342 14.7454C23.3476 15.4582 24.0159 16.6498 24.0159 17.9863C24.0159 20.1691 22.2451 21.951 20.0511 21.951C17.8682 21.951 16.0863 20.1802 16.0863 17.9863C16.0863 17.7301 16.1086 17.474 16.1643 17.2289C16.142 17.1621 16.142 17.1287 16.142 17.1287C16.142 17.1287 9.78277 11.3486 0.539063 12.518L10.4733 39.3247C10.4733 39.3247 17.0775 40.5944 32.6805 40.5944C47.6931 40.5944 55.0324 39.3247 55.0324 39.3247L64.9666 12.518C55.7118 11.3486 49.3525 17.1176 49.3525 17.1176Z" fill="url(#paint0_linear_1162_814)"/>
<g opacity="0.65">
<path opacity="0.65" d="M54.431 37.8994C54.431 37.8994 47.6931 40.06 32.6805 40.06C17.0775 40.06 11.1081 38.0108 11.1081 38.0108L2.81101 13.9883C2.54372 14.0105 0.817488 12.4848 0.539062 12.5182L10.4733 39.325C10.4733 39.325 17.0775 40.5946 32.6805 40.5946C47.6931 40.5946 55.0324 39.325 55.0324 39.325L64.9666 12.5182C64.6882 12.4848 63.2404 13.8324 62.962 13.8101L54.431 37.8994Z" fill="url(#paint1_linear_1162_814)"/>
</g>
<path d="M20.2738 23.8226C23.2362 23.8226 25.6307 21.4282 25.6307 18.4657C25.6307 16.2272 24.2608 14.3116 22.3119 13.5098C22.1894 14.3116 22.2673 14.668 22.2673 14.668C22.2673 14.668 22.2896 14.6903 22.323 14.7348C23.3365 15.4476 24.0047 16.6393 24.0047 17.9757C24.0047 20.1586 22.2339 21.9405 20.0399 21.9405C17.8571 21.9405 16.0751 20.1697 16.0751 17.9757C16.0751 17.7196 16.0974 17.4634 16.1531 17.2184C16.1308 17.1516 16.1308 17.1182 16.1308 17.1182C16.1308 17.1182 15.8413 16.8509 15.2956 16.4611C15.0394 17.0847 14.9058 17.753 14.9058 18.4657C14.9169 21.4282 17.3225 23.8226 20.2738 23.8226Z" fill="url(#paint2_linear_1162_814)"/>
<path d="M25.5526 6.3602C22.0445 11.8396 22.2227 14.2675 22.2784 14.6239C22.7684 14.6461 23.4477 14.6907 24.0157 14.7798C23.9712 14.1116 24.116 11.6503 27.3123 6.6609C29.4172 3.37549 31.4887 1.7829 32.7137 1.01444V0.000976562C32.7137 0.000976562 29.3726 0.390772 25.5526 6.3602Z" fill="url(#paint3_linear_1162_814)"/>
<path d="M16.142 17.1184C16.142 17.1184 9.78277 11.3494 0.539062 12.5188L2.85556 13.8552C10.1726 14.2339 14.9726 18.5773 14.9726 18.5773C15.329 18.1318 15.7522 17.6641 16.1754 17.2074C16.1531 17.1629 16.142 17.1184 16.142 17.1184Z" fill="#FFE800"/>
<path d="M27.9919 3.16389C27.9585 3.1973 27.9251 3.23071 27.8917 3.26412C27.8137 3.35321 27.7246 3.44231 27.6467 3.54254C27.6244 3.56482 27.6132 3.57595 27.6132 3.57595C27.6132 3.57595 29.5622 1.73835 30.4309 1.3931C31.2885 1.04785 30.7093 1.79403 30.0634 2.30634C29.4174 2.81864 26.3548 7.37367 25.2188 9.8795C24.6619 11.1157 24.3612 12.3074 24.2053 13.2206C24.5172 11.8953 25.319 9.76813 27.3014 6.6609C27.6467 6.11519 27.9919 5.62516 28.3372 5.16855C28.6156 4.77875 28.9274 4.37782 29.2615 3.97689C29.6068 3.56482 29.9743 3.20843 30.3195 2.88546C31.2328 1.98336 32.2796 1.3931 32.7251 1.01444V0.000976562C32.714 0.000976562 30.6759 0.234854 27.9919 3.16389Z" fill="white"/>
<path d="M23.37 21.4284C22.9468 21.4618 22.6238 21.2836 22.4345 21.1388C22.0224 21.4507 21.5547 21.6734 21.0423 21.807C21.1649 21.9073 21.2874 22.0186 21.3653 22.13C21.6103 22.4753 21.1983 23.0878 19.8284 23.3996C19.3495 23.511 18.737 23.4665 18.1467 23.3662C18.8038 23.6558 19.5277 23.8117 20.285 23.8117C23.0025 23.8117 25.2299 21.7959 25.5862 19.1787C25.1964 20.6822 24.0382 21.3727 23.37 21.4284Z" fill="white"/>
<path d="M16.1532 17.2974C16.1532 17.2974 15.0172 18.5448 15.0284 18.7675C15.0395 18.9902 15.2288 20.271 15.2288 20.271C15.2288 20.271 15.0172 19.7921 14.917 19.1907C14.8167 18.5893 13.9926 17.6984 12.6673 16.9522C11.342 16.206 7.93408 14.8027 7.93408 14.8027C7.93408 14.8027 10.7406 15.6269 12.1327 16.4065C13.5249 17.1861 14.3935 18.1104 15.0395 17.8209C15.6854 17.5424 14.3935 15.8273 14.3935 15.8273C14.3935 15.8273 15.4516 16.4065 15.7857 16.7628C16.1421 17.1192 16.2757 17.2195 16.1532 17.2974Z" fill="white"/>
<path d="M6.18552 14.0113C3.8913 13.666 3.27876 13.6883 2.566 13.3208C1.85323 12.9532 2.71078 12.6637 4.01381 12.6414C5.3057 12.6191 7.28808 12.8307 7.28808 12.8307C7.28808 12.8307 4.20314 11.9398 0.539062 12.5189L2.81101 13.989C2.81101 13.989 6.47508 14.2117 8.51315 14.9913C10.5401 15.7709 10.7294 15.7486 10.7294 15.7486C10.7294 15.7486 8.49088 14.3565 6.18552 14.0113Z" fill="white"/>
<path d="M45.2209 23.8236C42.2585 23.8236 39.864 21.4292 39.864 18.4667C39.864 16.2282 41.2339 14.3126 43.1828 13.5107C43.3053 14.3126 43.2274 14.669 43.2274 14.669C43.2274 14.669 43.2051 14.6913 43.1717 14.7358C42.1582 15.4486 41.49 16.6402 41.49 17.9767C41.49 20.1595 43.2608 21.9415 45.4548 21.9415C47.6376 21.9415 49.4196 20.1707 49.4196 17.9767C49.4196 17.7205 49.3973 17.4644 49.3416 17.2194C49.3639 17.1525 49.3639 17.1191 49.3639 17.1191C49.3639 17.1191 49.6534 16.8518 50.1991 16.462C50.4553 17.0857 50.5889 17.7539 50.5889 18.4667C50.5778 21.4292 48.1834 23.8236 45.2209 23.8236Z" fill="url(#paint4_linear_1162_814)"/>
<path d="M39.9084 6.3602C43.4165 11.8396 43.2606 14.2675 43.2049 14.6239C42.7149 14.6461 42.0467 14.6907 41.4676 14.7798C41.5121 14.1116 41.3339 11.6503 38.1376 6.6609C36.0438 3.36435 34.3844 1.77176 32.7139 1.00331V0.000976562C32.7139 0.000976562 36.0995 0.390772 39.9084 6.3602Z" fill="url(#paint5_linear_1162_814)"/>
<path d="M49.3525 17.1184C49.3525 17.1184 55.7117 11.3494 64.9554 12.5188L62.6389 13.8552C55.3219 14.2339 50.5219 18.5773 50.5219 18.5773C50.1655 18.1318 49.7423 17.6641 49.3191 17.2074C49.3525 17.1629 49.3525 17.1184 49.3525 17.1184Z" fill="#FFE800"/>
<path d="M42.1245 21.4284C42.5477 21.4618 42.8706 21.2836 43.06 21.1388C43.472 21.4507 43.9398 21.6734 44.4521 21.807C44.3296 21.9073 44.2071 22.0186 44.1291 22.13C43.8841 22.4753 44.2962 23.0878 45.666 23.3996C46.1449 23.511 46.7575 23.4665 47.3477 23.3662C46.6906 23.6558 45.9667 23.8117 45.2094 23.8117C42.492 23.8117 40.2646 21.7959 39.9082 19.1787C40.3091 20.6822 41.4674 21.3727 42.1245 21.4284Z" fill="white"/>
<path d="M64.9554 12.5189C61.2913 11.9398 58.2063 12.8307 58.2063 12.8307C58.2063 12.8307 60.1887 12.6191 61.4806 12.6414C62.7725 12.6637 63.3405 12.9644 62.6277 13.3208C61.915 13.6883 61.3024 13.666 59.0305 14.1783C56.391 14.7686 53.8184 16.1496 53.8184 16.1496C53.8184 16.1496 53.4954 16.3055 53.3506 16.3946C51.9585 17.1742 50.7 17.9203 50.4327 17.6085C49.9761 17.0739 51.1009 15.8266 51.1009 15.8266C51.1009 15.8266 50.0429 16.4057 49.7088 16.7621C49.3636 17.1185 49.2299 17.2187 49.3524 17.2855C49.3524 17.2855 50.4884 18.5329 50.4773 18.7556C50.4661 18.9784 50.2768 20.2591 50.2768 20.2591C50.2768 20.2591 50.4884 19.7802 50.5886 19.1788C50.6889 18.5774 51.513 17.6865 52.8383 16.9403C54.0745 16.2498 57.1261 15.0915 57.5493 14.9356C59.5985 14.2006 62.6946 13.9778 62.6946 13.9778L64.9554 12.5189Z" fill="white"/>
<path d="M11.1302 38.0108L10.4731 39.325C10.4731 39.325 17.0774 40.5946 32.6803 40.5946C47.693 40.5946 55.0323 39.325 55.0323 39.325L55.0546 39.2915L54.442 37.8994C54.442 37.8994 47.7041 40.06 32.6915 40.06C17.5897 40.06 11.5089 38.1444 11.1302 38.0108Z" fill="#D45900"/>
<path opacity="0.48" d="M54.4309 37.8998C54.4309 37.8998 62.7948 14.6234 63.1623 14.1223C63.5298 13.6323 64.9554 12.5186 64.9554 12.5186L62.6834 13.9886L54.4309 37.8998Z" fill="#FFE800"/>
<path opacity="0.48" d="M10.9522 37.8998C10.9522 37.8998 2.58827 14.6234 2.22075 14.1223C1.85323 13.6323 0.539062 12.5186 0.539062 12.5186L2.81101 13.9886L10.9522 37.8998Z" fill="#FFE800"/>
<defs>
<linearGradient id="paint0_linear_1162_814" x1="4.5013" y1="20.3004" x2="60.2728" y2="20.3004" gradientUnits="userSpaceOnUse">
<stop stop-color="#DC7100"/>
<stop offset="0.1158" stop-color="#E89B00"/>
<stop offset="0.4403" stop-color="#FFE800"/>
<stop offset="0.5403" stop-color="#F1B800"/>
<stop offset="1" stop-color="#D65E00"/>
</linearGradient>
<linearGradient id="paint1_linear_1162_814" x1="32.7503" y1="18.0276" x2="32.7503" y2="37.9545" gradientUnits="userSpaceOnUse">
<stop stop-color="#FFE800"/>
<stop offset="1" stop-color="#D45900"/>
</linearGradient>
<linearGradient id="paint2_linear_1162_814" x1="18.7689" y1="25.2571" x2="22.2909" y2="9.40819" gradientUnits="userSpaceOnUse">
<stop stop-color="#D45900"/>
<stop offset="1" stop-color="#FFE800"/>
</linearGradient>
<linearGradient id="paint3_linear_1162_814" x1="22.2563" y1="7.38892" x2="32.7154" y2="7.38892" gradientUnits="userSpaceOnUse">
<stop stop-color="#FFE800"/>
<stop offset="1" stop-color="#D45900"/>
</linearGradient>
<linearGradient id="paint4_linear_1162_814" x1="46.7321" y1="25.258" x2="43.2102" y2="9.40923" gradientUnits="userSpaceOnUse">
<stop stop-color="#D45900"/>
<stop offset="1" stop-color="#FFE800"/>
</linearGradient>
<linearGradient id="paint5_linear_1162_814" x1="43.2261" y1="7.38892" x2="32.7155" y2="7.38892" gradientUnits="userSpaceOnUse">
<stop stop-color="#D45900"/>
<stop offset="1" stop-color="#F2BE00"/>
</linearGradient>
</defs>
</svg>
