<svg width="276" height="240" viewBox="0 0 276 240" fill="none" xmlns="http://www.w3.org/2000/svg">
<path d="M196.803 137.4C196.803 137.4 196.711 137.489 196.562 137.684C196.291 138.545 195.966 139.423 195.533 140.245C191.844 147.247 183.117 149.951 176.116 146.262C169.114 142.573 166.391 133.882 170.098 126.845C172.357 122.558 176.478 119.846 180.969 119.292C181.152 119.205 181.225 119.153 181.225 119.153C181.225 119.153 186.875 112.5 184.71 86.8971C182.49 61.3114 172.253 54.321 172.253 54.321C172.253 54.321 160.914 49.944 138.609 62.6548C116.268 75.3467 114.084 83.8251 114.084 83.8251C114.084 83.8251 114.117 83.9342 114.149 84.1336C116.195 88.1324 116.325 93.084 114.067 97.3707C110.378 104.372 101.687 107.095 94.6494 103.388C87.6478 99.6991 84.9246 91.008 88.6322 83.9707C89.0651 83.1491 89.5694 82.3651 90.162 81.6733C90.2035 81.4213 90.26 81.3142 90.26 81.3142C90.26 81.3142 79.6301 52.0278 48.0043 40.1579L34.5686 142.93C34.5686 142.93 53.6065 158.162 103.654 184.529C151.808 209.899 177.494 218.229 177.494 218.229L254.659 149.033C226.95 129.642 196.803 137.4 196.803 137.4Z" fill="url(#paint0_linear_179_23244)"/>
<g opacity="0.65">
<path opacity="0.65" d="M177.974 212.642C177.974 212.642 152.711 208.186 104.557 182.816C54.5099 156.449 38.8256 139.788 38.8256 139.788L52.8075 48.7139C51.9125 48.3336 48.9539 40.5225 48.0043 40.1592L34.5686 142.931C34.5686 142.931 53.6065 158.164 103.654 184.531C151.808 209.9 177.494 218.23 177.494 218.23L254.659 149.034C253.822 148.456 246.901 150.332 246.046 149.79L177.974 212.642Z" fill="url(#paint1_linear_179_23244)"/>
</g>
<path d="M92.2004 109.767C101.703 114.773 113.429 111.139 118.435 101.637C122.218 94.4564 121.062 85.9972 116.165 80.1316C114.417 82.4966 114.065 83.7715 114.065 83.7715C114.065 83.7715 114.099 83.8806 114.131 84.0799C116.177 88.0788 116.306 93.0303 114.048 97.317C110.359 104.319 101.668 107.042 94.6309 103.334C87.6292 99.6455 84.9061 90.9544 88.6136 83.9171C89.0465 83.0954 89.5508 82.3115 90.1435 81.6197C90.1849 81.3677 90.2414 81.2605 90.2414 81.2605C90.2414 81.2605 89.7643 79.9139 88.6726 77.7414C86.7971 79.309 85.2392 81.2265 84.0347 83.5127C79.0642 93.0337 82.7339 104.779 92.2004 109.767Z" fill="url(#paint2_linear_179_23244)"/>
<path d="M138.642 62.6744C118.13 74.3215 114.599 82.4101 114.175 83.6474C115.709 84.5469 117.813 85.8378 119.485 87.0834C120.471 84.8648 125.095 77.2148 143.778 66.6125C156.082 59.6314 165.417 58.0236 170.646 57.629L172.358 54.3782C172.358 54.3782 160.983 49.9825 138.642 62.6744Z" fill="url(#paint3_linear_179_23244)"/>
<path d="M90.2772 81.2796C90.2772 81.2796 79.6285 52.029 48.0027 40.1591L53.1745 48.3604C76.0043 61.9398 84.0609 83.9831 84.0609 83.9831C85.9568 83.1565 88.1047 82.3713 90.2338 81.6218C90.2376 81.4413 90.2772 81.2796 90.2772 81.2796Z" fill="#FFE800"/>
<path d="M151.868 56.5441C151.704 56.5948 151.54 56.6455 151.377 56.6962C150.976 56.8502 150.54 56.9854 150.12 57.1752C150.011 57.209 149.957 57.2259 149.957 57.2259C149.957 57.2259 159.313 54.6252 162.683 54.9858C166.017 55.3276 162.899 56.7423 159.961 57.294C157.024 57.8456 139.502 67.2806 131.624 73.3985C127.749 76.4227 124.771 79.7368 122.727 82.4026C125.967 78.6786 132.134 73.2107 143.743 66.5941C145.773 65.4271 147.708 64.4387 149.587 63.5575C151.139 62.7778 152.817 62.0187 154.566 61.2973C156.37 60.559 158.151 60.0369 159.804 59.5844C164.258 58.2341 168.613 58.11 170.682 57.6482L172.395 54.3975C172.359 54.3786 165.426 51.6847 151.868 56.5441Z" fill="white"/>
<path d="M106.178 107.319C104.764 106.711 104.029 105.594 103.666 104.809C101.818 105.113 99.9409 105.037 98.0719 104.6C98.2954 105.129 98.5002 105.693 98.562 106.182C98.7645 107.703 96.4077 108.972 91.4868 107.657C89.7626 107.205 87.8731 106.027 86.1492 104.708C87.7675 106.747 89.826 108.471 92.2551 109.75C100.971 114.343 111.522 111.641 117.088 103.848C113.297 108.012 108.415 108.27 106.178 107.319Z" fill="white"/>
<path d="M90.0103 81.8726C90.0103 81.8726 84.2587 83.9539 83.918 84.6871C83.5774 85.4204 82.0203 89.8484 82.0203 89.8484C82.0203 89.8484 82.1509 87.9548 82.8456 85.8564C83.5404 83.758 82.4026 79.5075 79.4126 74.8745C76.4225 70.2415 67.8628 59.9814 67.8628 59.9814C67.8628 59.9814 75.4722 67.3676 78.6201 72.2207C81.768 77.0738 82.9922 81.5067 85.5535 81.6695C88.0959 81.868 86.8504 74.1836 86.8504 74.1836C86.8504 74.1836 89.2654 77.8291 89.7348 79.5368C90.2757 81.2822 90.535 81.8296 90.0103 81.8726Z" fill="white"/>
<path d="M63.5918 54.4875C56.8164 49.5031 54.814 48.5394 53.1488 46.1561C51.4836 43.7728 54.7236 44.2931 58.9408 46.4237C63.1222 48.5354 69.1233 52.5641 69.1233 52.5641C69.1233 52.5641 60.7337 44.4931 48.0024 40.1588L52.8055 48.7135C52.8055 48.7135 64.1818 55.6198 69.4016 61.5645C74.5857 67.4903 75.2306 67.7388 75.2306 67.7388C75.2306 67.7388 70.4029 59.4907 63.5918 54.4875Z" fill="white"/>
<path d="M172.218 151.927C162.716 146.921 159.082 135.195 164.088 125.692C167.871 118.512 175.502 114.683 183.108 115.404C182.146 118.183 181.294 119.195 181.294 119.195C181.294 119.195 181.185 119.229 181.002 119.315C176.547 119.889 172.39 122.582 170.131 126.868C166.443 133.87 169.111 142.578 176.149 146.286C183.15 149.974 191.858 147.306 195.566 140.268C195.999 139.447 196.36 138.587 196.596 137.707C196.78 137.531 196.836 137.424 196.836 137.424C196.836 137.424 198.217 137.056 200.626 136.728C200.394 139.161 199.693 141.53 198.489 143.816C193.447 153.3 181.72 156.934 172.218 151.927Z" fill="url(#paint4_linear_179_23244)"/>
<path d="M184.689 86.9343C186.682 110.438 182.079 117.962 181.298 119.011C179.689 118.255 177.47 117.268 175.462 116.575C176.734 114.507 180.322 106.311 178.501 84.9064C177.356 70.7943 174.724 62.8818 170.665 57.5939L172.358 54.3789C172.358 54.3789 182.559 61.3505 184.689 86.9343Z" fill="url(#paint5_linear_179_23244)"/>
<path d="M196.801 137.403C196.801 137.403 226.948 129.645 254.621 149.016L244.933 149.388C220.823 138.238 198.087 144.058 198.087 144.058C197.697 142.027 197.13 139.812 196.544 137.632C196.726 137.545 196.801 137.403 196.801 137.403Z" fill="#FFE800"/>
<path d="M166.333 139.012C167.634 139.834 168.972 139.809 169.823 139.664C170.618 141.361 171.742 142.866 173.16 144.16C172.597 144.274 172.016 144.425 171.578 144.65C170.209 145.343 170.495 148.005 174.362 151.32C175.71 152.486 177.75 153.378 179.813 154.054C177.216 153.873 174.63 153.15 172.201 151.87C163.485 147.278 159.747 137.048 163.026 128.051C161.772 133.551 164.32 137.723 166.333 139.012Z" fill="white"/>
<path d="M254.621 149.016C243.847 140.967 232.446 138.611 232.446 138.611C232.446 138.611 239.162 141.283 243.268 143.537C247.375 145.792 248.688 147.716 245.8 147.655C242.892 147.629 240.965 146.523 232.812 144.327C223.349 141.759 212.763 141.842 212.763 141.842C212.763 141.842 211.463 141.796 210.849 141.837C205.066 141.985 199.768 142.252 199.438 140.8C198.877 138.314 204.592 136.214 204.592 136.214C204.592 136.214 200.22 136.283 198.546 136.862C196.837 137.421 196.238 137.517 196.519 137.938C196.519 137.938 198.054 143.859 197.642 144.555C197.23 145.25 194.459 149.038 194.459 149.038C194.459 149.038 195.946 147.86 197.284 146.1C198.622 144.341 202.771 142.876 208.283 142.722C213.415 142.596 225.16 144.038 226.781 144.253C234.596 145.358 244.904 149.875 244.904 149.875L254.621 149.016Z" fill="white"/>
<path d="M38.896 139.826L34.5676 142.931C34.5676 142.931 53.6055 158.164 103.653 184.531C151.807 209.9 177.493 218.23 177.493 218.23L177.621 218.161L178.009 212.661C178.009 212.661 152.746 208.204 104.592 182.835C56.1521 157.315 39.8847 140.895 38.896 139.826Z" fill="#D45900"/>
<path opacity="0.48" d="M177.973 212.643C177.973 212.643 244.135 152.117 246.161 151.131C248.168 150.18 254.622 149.017 254.622 149.017L244.85 149.893L177.973 212.643Z" fill="#FFE800"/>
<path opacity="0.48" d="M38.5122 139.169C38.5122 139.169 51.0189 50.3746 50.6869 48.146C50.3362 45.9532 48.0029 40.1602 48.0029 40.1602L52.8061 48.7148L38.5122 139.169Z" fill="#FFE800"/>
<defs>
<linearGradient id="paint0_linear_179_23244" x1="47.562" y1="71.8163" x2="226.452" y2="166.063" gradientUnits="userSpaceOnUse">
<stop stop-color="#DC7100"/>
<stop offset="0.1158" stop-color="#E89B00"/>
<stop offset="0.4403" stop-color="#FFE800"/>
<stop offset="0.5403" stop-color="#F1B800"/>
<stop offset="1" stop-color="#D65E00"/>
</linearGradient>
<linearGradient id="paint1_linear_179_23244" x1="142.013" y1="112.264" x2="108.339" y2="176.181" gradientUnits="userSpaceOnUse">
<stop stop-color="#FFE800"/>
<stop offset="1" stop-color="#D45900"/>
</linearGradient>
<linearGradient id="paint2_linear_179_23244" x1="84.9493" y1="111.824" x2="123.029" y2="66.9401" gradientUnits="userSpaceOnUse">
<stop stop-color="#D45900"/>
<stop offset="1" stop-color="#FFE800"/>
</linearGradient>
<linearGradient id="paint3_linear_179_23244" x1="126.331" y1="60.4036" x2="159.879" y2="78.0782" gradientUnits="userSpaceOnUse">
<stop stop-color="#FFE800"/>
<stop offset="1" stop-color="#D45900"/>
</linearGradient>
<linearGradient id="paint4_linear_179_23244" x1="174.641" y1="159.082" x2="190.127" y2="102.295" gradientUnits="userSpaceOnUse">
<stop stop-color="#D45900"/>
<stop offset="1" stop-color="#FFE800"/>
</linearGradient>
<linearGradient id="paint5_linear_179_23244" x1="193.592" y1="95.8405" x2="159.879" y2="78.0789" gradientUnits="userSpaceOnUse">
<stop stop-color="#D45900"/>
<stop offset="1" stop-color="#F2BE00"/>
</linearGradient>
</defs>
</svg>
