<svg width="65" height="41" viewBox="0 0 65 41" fill="none" xmlns="http://www.w3.org/2000/svg">
<path d="M49.0996 17.1176C49.0996 17.1176 49.0885 17.151 49.0773 17.2178C49.1219 17.4628 49.1553 17.719 49.1553 17.9751C49.1553 20.158 47.3734 21.9399 45.1905 21.9399C43.0077 21.9399 41.2258 20.1691 41.2258 17.9751C41.2258 16.6387 41.8828 15.447 42.9074 14.7343C42.9409 14.6897 42.952 14.6674 42.952 14.6674C42.952 14.6674 43.4754 12.3175 39.6554 6.34809C35.8243 0.389795 32.4275 0 32.4275 0C32.4275 0 29.0976 0.389795 25.2887 6.35923C21.4687 12.3287 22.0256 14.6786 22.0256 14.6786C22.0256 14.6786 22.0478 14.7008 22.0812 14.7454C23.0947 15.4582 23.7629 16.6498 23.7629 17.9863C23.7629 20.1691 21.9922 21.951 19.7982 21.951C17.6153 21.951 15.8334 20.1802 15.8334 17.9863C15.8334 17.7301 15.8557 17.474 15.9113 17.2289C15.8891 17.1621 15.8891 17.1287 15.8891 17.1287C15.8891 17.1287 9.52985 11.3486 0.286133 12.518L10.2203 39.3247C10.2203 39.3247 16.8246 40.5944 32.4275 40.5944C47.4402 40.5944 54.7795 39.3247 54.7795 39.3247L64.7137 12.518C55.4588 11.3486 49.0996 17.1176 49.0996 17.1176Z" fill="url(#paint0_linear_1162_2061)"/>
<path d="M54.1781 37.8984C54.1781 37.8984 47.4402 40.059 32.4275 40.059C16.8246 40.059 10.8551 38.0098 10.8551 38.0098L2.55808 13.9873C2.29079 14.0096 0.564558 12.4838 0.286133 12.5172L10.2203 39.324C10.2203 39.324 16.8246 40.5936 32.4275 40.5936C47.4402 40.5936 54.7795 39.324 54.7795 39.324L64.7137 12.5172C64.4353 12.4838 62.9875 13.8314 62.709 13.8091L54.1781 37.8984Z" fill="url(#paint1_linear_1162_2061)"/>
<path d="M20.0209 23.8217C22.9833 23.8217 25.3778 21.4272 25.3778 18.4648C25.3778 16.2262 24.0079 14.3107 22.0589 13.5088C21.9364 14.3107 22.0144 14.667 22.0144 14.667C22.0144 14.667 22.0367 14.6893 22.0701 14.7339C23.0835 15.4466 23.7518 16.6383 23.7518 17.9747C23.7518 20.1576 21.981 21.9395 19.787 21.9395C17.6041 21.9395 15.8222 20.1687 15.8222 17.9747C15.8222 17.7186 15.8445 17.4624 15.9002 17.2174C15.8779 17.1506 15.8779 17.1172 15.8779 17.1172C15.8779 17.1172 15.5883 16.8499 15.0426 16.4601C14.7865 17.0838 14.6528 17.752 14.6528 18.4648C14.664 21.4272 17.0696 23.8217 20.0209 23.8217Z" fill="url(#paint2_linear_1162_2061)"/>
<path d="M25.211 6.35923C21.7028 11.8386 21.9256 14.2665 21.9813 14.6229C22.4713 14.6452 23.1729 14.6897 23.7409 14.7788C23.6964 14.1106 23.7632 11.6493 26.9595 6.65993C29.0644 3.37451 31.0579 1.78192 32.283 1.01347V0C32.283 0 29.031 0.389795 25.211 6.35923Z" fill="url(#paint3_linear_1162_2061)"/>
<path d="M15.8891 17.1174C15.8891 17.1174 9.52985 11.3484 0.286133 12.5178L2.60263 13.8542C9.91964 14.2329 14.7197 18.5763 14.7197 18.5763C15.0761 18.1308 15.4993 17.6631 15.9225 17.2065C15.9002 17.1619 15.8891 17.1174 15.8891 17.1174Z" fill="#E5E5E3"/>
<path d="M27.6388 3.16291C27.6054 3.19632 27.6165 3.22973 27.5831 3.26314C27.5052 3.35224 27.4383 3.44133 27.3604 3.54157C27.3381 3.56384 27.3381 3.57498 27.3381 3.57498C27.3381 3.57498 29.2982 1.73737 30.1558 1.39213C31.0133 1.04688 30.4342 1.79306 29.7882 2.30536C29.1423 2.81766 26.0796 7.37269 24.9436 9.87852C24.3868 11.1147 24.0861 12.3064 23.9302 13.2196C24.242 11.8943 25.0439 9.76715 27.0263 6.65993C27.3715 6.11421 27.7168 5.62419 28.062 5.16757C28.3404 4.77777 28.6523 4.37684 28.9864 3.97591C29.3316 3.56384 29.61 3.20746 29.9553 2.88448C30.8685 1.98239 31.8263 1.39213 32.2718 1.01347V0C32.2829 0 30.334 0.233877 27.6388 3.16291Z" fill="white"/>
<path d="M23.1171 21.4274C22.6938 21.4608 22.3709 21.2826 22.1815 21.1378C21.7695 21.4497 21.3017 21.6724 20.7894 21.8061C20.9119 21.9063 21.0344 22.0177 21.1124 22.129C21.3574 22.4743 20.9453 23.0868 19.5755 23.3987C19.0966 23.51 18.4841 23.4655 17.8938 23.3652C18.5509 23.6548 19.2748 23.8107 20.0321 23.8107C22.7495 23.8107 24.9769 21.7949 25.3333 19.1777C24.9435 20.6812 23.7853 21.3717 23.1171 21.4274Z" fill="white"/>
<path d="M15.9003 17.2964C15.9003 17.2964 14.7643 18.5438 14.7754 18.7665C14.7866 18.9893 14.9759 20.27 14.9759 20.27C14.9759 20.27 14.7643 19.7911 14.6641 19.1897C14.5638 18.5883 13.7397 17.6974 12.4144 16.9512C11.0891 16.205 7.68115 14.8018 7.68115 14.8018C7.68115 14.8018 10.4877 15.6259 11.8798 16.4055C13.2719 17.1851 14.1406 18.1094 14.7866 17.8199C15.4325 17.5415 14.1406 15.8264 14.1406 15.8264C14.1406 15.8264 15.1986 16.4055 15.5327 16.7619C15.8891 17.1183 16.0228 17.2185 15.9003 17.2964Z" fill="white"/>
<path d="M5.93259 14.0103C3.63837 13.665 3.02584 13.6873 2.31307 13.3198C1.6003 12.9523 2.45785 12.6627 3.76088 12.6404C5.05277 12.6182 7.03516 12.8298 7.03516 12.8298C7.03516 12.8298 3.95021 11.9388 0.286133 12.5179L2.55808 13.988C2.55808 13.988 6.22215 14.2107 8.26023 14.9903C10.2872 15.7699 10.4765 15.7476 10.4765 15.7476C10.4765 15.7476 8.23795 14.3555 5.93259 14.0103Z" fill="white"/>
<path d="M44.968 23.8226C42.0055 23.8226 39.6111 21.4282 39.6111 18.4657C39.6111 16.2272 40.9809 14.3116 42.9299 13.5098C43.0524 14.3116 42.9745 14.668 42.9745 14.668C42.9745 14.668 42.9522 14.6903 42.9188 14.7348C41.9053 15.4476 41.2371 16.6393 41.2371 17.9757C41.2371 20.1586 43.0079 21.9405 45.2019 21.9405C47.3847 21.9405 49.1666 20.1697 49.1666 17.9757C49.1666 17.7196 49.1444 17.4634 49.0887 17.2184C49.1109 17.1516 49.1109 17.1182 49.1109 17.1182C49.1109 17.1182 49.4005 16.8509 49.9462 16.4611C50.2024 17.0847 50.336 17.753 50.336 18.4657C50.3249 21.4282 47.9304 23.8226 44.968 23.8226Z" fill="url(#paint4_linear_1162_2061)"/>
<path d="M39.5663 6.35923C43.0745 11.8386 42.9631 14.2665 42.9074 14.6229C42.4174 14.6452 41.7714 14.6897 41.1923 14.7788C41.2369 14.1106 40.9807 11.6493 37.7844 6.65993C35.6906 3.36337 33.9533 1.77078 32.2827 1.00233V0C32.2827 0 35.7575 0.389795 39.5663 6.35923Z" fill="url(#paint5_linear_1162_2061)"/>
<path d="M49.0996 17.1174C49.0996 17.1174 55.4588 11.3484 64.7025 12.5178L62.386 13.8542C55.069 14.2329 50.269 18.5763 50.269 18.5763C49.9126 18.1308 49.4894 17.6631 49.0662 17.2065C49.0996 17.1619 49.0996 17.1174 49.0996 17.1174Z" fill="#E5E5E3"/>
<path d="M41.8718 21.4274C42.295 21.4608 42.618 21.2826 42.8073 21.1378C43.2194 21.4497 43.6871 21.6724 44.1994 21.8061C44.0769 21.9063 43.9544 22.0177 43.8764 22.129C43.6314 22.4743 44.0435 23.0868 45.4133 23.3987C45.8922 23.51 46.5048 23.4655 47.095 23.3652C46.438 23.6548 45.714 23.8107 44.9567 23.8107C42.2393 23.8107 40.0119 21.7949 39.6555 19.1777C40.0564 20.6812 41.2147 21.3717 41.8718 21.4274Z" fill="white"/>
<path d="M64.7024 12.5179C61.0384 11.9388 57.9534 12.8298 57.9534 12.8298C57.9534 12.8298 59.9358 12.6182 61.2277 12.6404C62.5196 12.6627 63.0876 12.9634 62.3748 13.3198C61.662 13.6873 61.0495 13.665 58.7776 14.1773C56.1381 14.7676 53.5654 16.1486 53.5654 16.1486C53.5654 16.1486 53.2425 16.3045 53.0977 16.3936C51.7056 17.1732 50.4471 17.9194 50.1798 17.6075C49.7232 17.073 50.848 15.8256 50.848 15.8256C50.848 15.8256 49.79 16.4047 49.4559 16.7611C49.1218 17.1175 48.977 17.2177 49.0995 17.2846C49.0995 17.2846 50.2355 18.5319 50.2243 18.7546C50.2132 18.9774 50.0239 20.2581 50.0239 20.2581C50.0239 20.2581 50.2355 19.7792 50.3357 19.1778C50.4359 18.5764 51.2601 17.6855 52.5854 16.9393C53.8216 16.2488 56.8731 15.0906 57.2963 14.9346C59.3455 14.1996 62.4416 13.9769 62.4416 13.9769L64.7024 12.5179Z" fill="white"/>
<path d="M10.8773 38.0098L10.2202 39.324C10.2202 39.324 16.8245 40.5936 32.4274 40.5936C47.4401 40.5936 54.7794 39.324 54.7794 39.324L54.8016 39.2906L54.1891 37.8984C54.1891 37.8984 47.4512 40.059 32.4385 40.059C17.3368 40.059 11.256 38.1435 10.8773 38.0098Z" fill="url(#paint6_linear_1162_2061)"/>
<path opacity="0.48" d="M54.1782 37.8998C54.1782 37.8998 62.5421 14.6234 62.9096 14.1223C63.2772 13.6323 64.7027 12.5186 64.7027 12.5186L62.4307 13.9886L54.1782 37.8998Z" fill="#E5E5E3"/>
<path opacity="0.48" d="M10.6992 37.8998C10.6992 37.8998 2.33534 14.6234 1.96782 14.1223C1.6003 13.6323 0.286133 12.5186 0.286133 12.5186L2.55808 13.9886L10.6992 37.8998Z" fill="#E5E5E3"/>
<defs>
<linearGradient id="paint0_linear_1162_2061" x1="4.2484" y1="20.3004" x2="60.0204" y2="20.3004" gradientUnits="userSpaceOnUse">
<stop stop-color="#91969F"/>
<stop offset="0.623" stop-color="#B5C0C9"/>
<stop offset="1" stop-color="#8F939C"/>
</linearGradient>
<linearGradient id="paint1_linear_1162_2061" x1="32.4976" y1="18.0266" x2="32.4976" y2="37.9535" gradientUnits="userSpaceOnUse">
<stop stop-color="#D6D8DB"/>
<stop offset="1" stop-color="#8F939C"/>
</linearGradient>
<linearGradient id="paint2_linear_1162_2061" x1="18.516" y1="25.2561" x2="22.038" y2="9.40721" gradientUnits="userSpaceOnUse">
<stop stop-color="#8F939C"/>
<stop offset="1" stop-color="#D6D8DB"/>
</linearGradient>
<linearGradient id="paint3_linear_1162_2061" x1="21.9557" y1="7.38794" x2="32.2817" y2="7.38794" gradientUnits="userSpaceOnUse">
<stop stop-color="#8F939C"/>
<stop offset="1" stop-color="#D6D8DB"/>
</linearGradient>
<linearGradient id="paint4_linear_1162_2061" x1="46.4793" y1="25.2571" x2="42.9574" y2="9.40832" gradientUnits="userSpaceOnUse">
<stop stop-color="#D6D8DB"/>
<stop offset="1" stop-color="#8F939C"/>
</linearGradient>
<linearGradient id="paint5_linear_1162_2061" x1="32.2814" y1="7.38794" x2="42.9254" y2="7.38794" gradientUnits="userSpaceOnUse">
<stop stop-color="#B5C0C9"/>
<stop offset="1" stop-color="#8F939C"/>
</linearGradient>
<linearGradient id="paint6_linear_1162_2061" x1="32.5058" y1="15.5277" x2="32.5058" y2="38.1932" gradientUnits="userSpaceOnUse">
<stop stop-color="#D6D8DB"/>
<stop offset="1" stop-color="#8F939C"/>
</linearGradient>
</defs>
</svg>
