<svg width="32" height="32" viewBox="0 0 32 32" fill="none" xmlns="http://www.w3.org/2000/svg">
<circle cx="16" cy="16" r="16" fill="url(#paint0_linear_1162_23245)"/>
<path d="M12.0071 14.1761C11.4688 14.0223 11.5072 14.0223 11.584 13.5225C11.6226 13.2149 11.6609 12.9458 11.6609 12.6381C11.6609 12.4075 11.7379 12.3305 11.9685 12.3305C12.3914 12.3305 12.3531 12.3305 12.3146 11.9076C12.2377 11.254 12.3531 10.6387 12.7375 10.1004C12.9682 9.79277 13.2374 9.63903 13.6218 9.60058C13.6986 9.60058 13.7756 9.60058 13.8525 9.63906C13.9294 9.63906 14.0063 9.67745 14.0832 9.71593C14.0832 9.63907 14.1216 9.52359 14.0832 9.44679C13.8525 8.67786 14.3523 7.83187 15.1598 7.75504C15.4289 7.71656 15.6981 7.9088 15.9287 7.9857C16.3901 8.10102 16.4285 8.524 16.467 8.90852C16.5055 9.13913 16.5055 9.40828 16.1594 9.52362C16.0825 9.5621 16.0441 9.79277 16.0056 9.94657C16.467 10.0619 16.467 9.86973 16.8899 9.71593C17.3129 9.79277 17.236 9.90824 17.5051 9.90824H20.3888C20.5426 9.90824 20.658 9.98511 20.8117 10.0235C20.8117 9.86973 21.0425 9.98511 21.1578 10.2927C21.5038 10.2543 21.8499 10.2543 22.1575 10.2158C22.3113 10.2158 22.5035 10.2158 22.6573 10.2544C22.6958 10.2544 22.7342 10.3312 22.7342 10.3312C22.7342 10.3696 22.6573 10.4465 22.6573 10.4465H22.1575C21.8115 10.4465 21.4654 10.408 21.1578 10.4465C20.6194 10.5234 20.0812 10.6388 19.5429 10.6388C19.0046 10.6003 18.6202 11.1387 18.7354 11.6385C18.7739 11.7539 18.8123 11.8693 18.8508 11.9846C18.5431 12.0615 18.5047 12.2922 18.4664 12.5229C18.4279 12.9459 18.0818 13.1765 17.7742 13.3303C17.5819 13.4072 17.3128 13.3303 17.0821 13.2534C16.7361 13.1381 16.4284 12.9459 16.0823 12.7921C16.0055 12.9843 15.8901 13.1765 16.1977 13.2919C16.2745 13.3304 16.3131 13.4457 16.3131 13.5226C16.2745 14.0994 16.2362 14.6376 16.1593 15.2143C16.1208 15.4066 16.0055 15.522 15.7748 15.4066C15.7362 15.4066 15.5825 15.4835 15.5825 15.522C15.621 15.7142 15.621 15.9449 15.7362 16.0987C16.2746 16.7139 16.6206 17.4444 16.8898 18.1751C16.9666 18.3672 17.1205 18.5595 17.1974 18.7902C17.3897 19.367 17.2359 19.9053 17.1974 20.482C17.1589 20.7126 17.1974 20.9433 17.1974 21.2125C17.1974 21.3663 17.1974 21.5202 17.1589 21.6739C17.1205 21.8662 17.0821 22.0584 17.0436 22.2507C17.0436 22.8659 17.3513 23.3273 17.928 23.558C18.0433 23.5965 18.1202 23.6348 18.1972 23.7118C18.274 23.7887 18.3124 23.9041 18.274 23.9809C18.274 24.0194 18.1201 24.0963 18.0817 24.0963L16.6974 23.9809H16.1207C15.8901 23.9809 15.7747 23.9041 15.8515 23.6349C15.9284 23.1735 16.1592 22.7122 16.0439 22.2124C16.0053 21.9817 15.9285 21.7509 15.8901 21.5203C15.8132 21.0974 15.7362 20.7128 15.7362 20.2899C15.7362 20.0591 15.8516 19.8669 15.8901 19.6362C15.9669 19.3285 15.8516 19.2517 15.544 19.1747C15.4287 19.1747 15.2748 19.0594 15.1596 18.9441C14.9288 18.6365 14.7367 18.3289 14.5059 17.9828C14.4675 17.9444 14.4291 17.8291 14.3906 17.8291C14.083 17.8675 13.9676 17.5983 13.8138 17.3292C13.5831 17.8291 13.3524 18.252 13.1602 18.6749C13.1217 18.7903 13.1217 18.9441 13.0448 19.0594C13.0064 19.1747 12.9295 19.3285 12.8526 19.4439C12.6602 19.7516 12.4681 20.0207 12.2757 20.2899C12.2757 20.3283 12.2373 20.3283 12.2373 20.3667C12.3527 21.0204 11.8914 21.5202 11.699 22.0585C11.6605 22.2507 11.3914 22.366 11.3145 22.5582C11.1222 22.9813 11.0453 23.4042 11.2377 23.8656C11.353 24.1347 11.2762 24.25 10.9685 24.25H10.3149C10.0842 24.25 9.96882 24.0962 10.0073 23.8656C10.0841 23.4427 10.1996 23.0197 10.2764 22.5968C10.3149 22.4044 10.2764 22.1738 10.3149 21.9431C10.3533 21.7124 10.3917 21.5202 10.4302 21.2895C10.507 21.0587 10.5456 20.8281 10.6609 20.5973C10.7762 20.3282 10.8915 20.059 11.0453 19.7899C11.1607 19.5976 11.2761 19.4438 11.353 19.2516C11.3914 19.1747 11.4298 19.0593 11.4298 18.944L11.5452 17.4444C11.5452 17.3291 11.5067 17.1752 11.5067 17.0599C11.5067 16.7907 11.4683 16.5216 11.4683 16.2524C11.4683 16.1756 11.5067 16.0602 11.5452 16.0602C11.8143 15.9833 11.6989 15.791 11.6989 15.6757C11.6604 15.3681 11.6221 15.0989 11.5836 14.7914C11.6994 14.5606 11.661 14.2915 12.0071 14.1761ZM17.6207 11.7538C17.7744 11.4847 17.9666 11.2924 18.0821 11.0617C18.1204 10.9849 18.0821 10.831 18.0052 10.7926C17.9667 10.754 17.8129 10.7926 17.7361 10.831C17.5822 10.9464 17.5053 11.1001 17.3516 11.2924C17.4284 11.4078 17.5053 11.5615 17.6207 11.7538Z" fill="#121212"/>
<defs>
<linearGradient id="paint0_linear_1162_23245" x1="16" y1="0" x2="16" y2="32" gradientUnits="userSpaceOnUse">
<stop stop-color="white"/>
<stop offset="1" stop-color="#D1CFCF"/>
</linearGradient>
</defs>
</svg>
