<svg width="25" height="24" viewBox="0 0 25 24" fill="none" xmlns="http://www.w3.org/2000/svg">
<path d="M12.8025 21.6764C12.8025 21.6194 12.8025 21.5705 12.8025 21.5217C12.8025 15.2415 12.8025 8.96124 12.7998 2.68104C12.7998 2.55614 12.8215 2.5127 12.96 2.5127C14.0651 2.51813 15.1674 2.51813 16.2725 2.51541C16.373 2.51541 16.4083 2.53442 16.4083 2.64574C16.4056 8.41006 16.4056 14.1744 16.4056 19.9387C16.4056 20.0012 16.411 20.0555 16.3323 20.0908C15.1702 20.6148 14.0108 21.1415 12.8514 21.6683C12.8432 21.671 12.8324 21.671 12.8025 21.6764Z" fill="#626F8C"/>
<path d="M12.1971 21.6873C11.9446 21.5732 11.7084 21.4674 11.4694 21.3587C10.5435 20.9379 9.62039 20.5143 8.69451 20.0989C8.61848 20.0663 8.5859 20.0256 8.59676 19.9469C8.59948 19.9251 8.59676 19.9007 8.59676 19.879C8.59676 14.1527 8.59676 8.42364 8.59676 2.69733C8.59676 2.48826 8.57233 2.51541 8.77596 2.51541C9.87018 2.51541 10.9644 2.51813 12.0613 2.5127C12.1754 2.5127 12.1998 2.54528 12.1998 2.6566C12.1971 8.9531 12.1971 15.2523 12.1971 21.5488C12.1971 21.5895 12.1971 21.6276 12.1971 21.6873Z" fill="#626F8C"/>
<path d="M7.98025 19.7375C7.60555 19.5719 7.2553 19.4171 6.90504 19.2596C5.91128 18.8171 4.91753 18.3718 3.92106 17.9346C3.80159 17.8803 3.75 17.8233 3.75 17.6794C3.75815 16.3218 3.75543 14.9642 3.75272 13.6066C3.75272 13.5279 3.76629 13.4573 3.79887 13.384C3.97807 12.9659 4.15456 12.5423 4.33376 12.1242C4.36363 12.0563 4.37721 11.9884 4.37721 11.9151C4.37721 10.286 4.37721 8.65687 4.37721 7.02776C4.37721 6.95445 4.36092 6.88657 4.33105 6.8187C4.15185 6.39513 3.97264 5.97156 3.79344 5.54799C3.76629 5.48554 3.75543 5.42038 3.75543 5.3525C3.75543 4.45106 3.75815 3.55234 3.75272 2.6509C3.75272 2.54772 3.77715 2.51514 3.88576 2.51514C5.20805 2.51785 6.52763 2.51785 7.84992 2.51514C7.95853 2.51514 7.98296 2.54772 7.98296 2.6509C7.98025 8.30661 7.98025 13.9623 7.98025 19.6208C7.98025 19.6506 7.98025 19.6832 7.98025 19.7375Z" fill="#626F8C"/>
<path d="M17.0271 19.7677C17.0271 19.7025 17.0271 19.6509 17.0271 19.602C17.0271 13.9599 17.0271 8.32046 17.0244 2.67832C17.0244 2.55071 17.0489 2.5127 17.1846 2.5127C18.4933 2.51813 19.7993 2.51813 21.108 2.5127C21.2194 2.5127 21.2519 2.53985 21.2492 2.65388C21.2438 3.55532 21.2465 4.45405 21.2465 5.35549C21.2465 5.4288 21.2329 5.49668 21.2031 5.56456C21.0266 5.97455 20.8528 6.38726 20.679 6.79996C20.6437 6.88142 20.6275 6.96016 20.6302 7.04976C20.6329 8.66529 20.6329 10.2808 20.6302 11.8936C20.6302 11.9805 20.6437 12.062 20.679 12.1434C20.8555 12.5534 21.0293 12.9661 21.2031 13.3761C21.2329 13.444 21.2465 13.5119 21.2465 13.5852C21.2465 14.9699 21.2465 16.3547 21.2465 17.7394C21.2465 17.81 21.2411 17.8616 21.1596 17.8969C19.8048 18.5078 18.4526 19.1242 17.1004 19.7378C17.0841 19.7487 17.0651 19.7514 17.0271 19.7677Z" fill="#626F8C"/>
</svg>
