<svg width="24" height="17" viewBox="0 0 24 17" fill="none" xmlns="http://www.w3.org/2000/svg">
<g clip-path="url(#clip0_185_16305)">
<path d="M0 0.5H24.0002V16.5003H0V0.5Z" fill="#F0F0F0"/>
<path d="M13.5001 0.5H10.5001V7.00003H0V10.0001H10.5001V16.5001H13.5001V10.0001H24.0002V7.00003H13.5001V0.5Z" fill="#D80027"/>
<path d="M18.459 11.2827L24.0004 14.3613V11.2827H18.459Z" fill="#0052B4"/>
<path d="M14.6089 11.2827L24.0003 16.5001V15.0248L17.2646 11.2827H14.6089Z" fill="#0052B4"/>
<path d="M21.4987 16.4999L14.6089 12.6719V16.4999H21.4987Z" fill="#0052B4"/>
<path d="M14.6089 11.2827L24.0003 16.5001V15.0248L17.2646 11.2827H14.6089Z" fill="#F0F0F0"/>
<path d="M14.6089 11.2827L24.0003 16.5001V15.0248L17.2646 11.2827H14.6089Z" fill="#D80027"/>
<path d="M4.23478 11.2827L0 13.6354V11.2827H4.23478Z" fill="#0052B4"/>
<path d="M9.39133 11.9463V16.5003H1.19482L9.39133 11.9463Z" fill="#0052B4"/>
<path d="M6.73568 11.2827L0 15.0248V16.5001L9.39141 11.2827H6.73568Z" fill="#D80027"/>
<path d="M5.54138 5.71727L0 2.63867V5.71727H5.54138Z" fill="#0052B4"/>
<path d="M9.39141 5.71743L0 0.5V1.97536L6.73568 5.71743H9.39141Z" fill="#0052B4"/>
<path d="M2.50146 0.5L9.39131 4.32804V0.5H2.50146Z" fill="#0052B4"/>
<path d="M9.39141 5.71743L0 0.5V1.97536L6.73568 5.71743H9.39141Z" fill="#F0F0F0"/>
<path d="M9.39141 5.71743L0 0.5V1.97536L6.73568 5.71743H9.39141Z" fill="#D80027"/>
<path d="M19.7656 5.71743L24.0004 3.36475V5.71743H19.7656Z" fill="#0052B4"/>
<path d="M14.6089 5.054V0.5H22.8054L14.6089 5.054Z" fill="#0052B4"/>
<path d="M17.2646 5.71743L24.0003 1.97536V0.5L14.6089 5.71743H17.2646Z" fill="#D80027"/>
</g>
<defs>
<clipPath id="clip0_185_16305">
<rect y="0.5" width="24.0002" height="16.0005" rx="3" fill="white"/>
</clipPath>
</defs>
</svg>
